<?xml version="1.0" standalone="yes"?>
<svg xmlns="http://www.w3.org/2000/svg" width="800" height="800">
<path style="fill:#fddebf; stroke:none;" d="M0 0L0 19C5.85487 17.0568 4 9.12909 4 4C8.43406 3.65002 14.4367 3.95453 17 0L0 0z"/>
<path style="fill:#ea4947; stroke:none;" d="M4 4C4 9.47064 5.42407 16.009 0 19L0 44C5.77252 44 11.2785 44.2769 17 45C15.6967 53.1722 6.43247 51 0 51L0 119C3.49172 120.057 4.43195 121.418 5 125C7.99711 126.088 9.05157 126.95 10 130C15.7667 131.693 15.1094 136.52 9 136C10.4398 141.131 9.79983 143.648 4 143L4 147L0 147C0 153.617 -2.38751 165.99 1.02778 171.787C4.14951 177.086 12.4844 179.04 16.6628 183.662C18.4635 185.654 18.5934 189.251 14.9406 188.629C12.0696 188.14 9.40743 185.434 7.01466 183.916C4.73707 182.471 2.45422 181.097 0 180L0 209C0 212.344 -0.930105 217.464 1.02778 220.391C3.78644 224.515 10.1469 226.711 13.9761 229.76C15.4603 230.942 18.4921 233.301 17.0787 235.552C15.9042 237.424 13.4229 236.233 11.9992 235.474C7.91084 233.295 4.39957 230.602 0 229C0 237.888 1.7485 246.303 2 255C6.25887 252.971 8.59713 253.223 10 258L15 258L15 264L7 264C8.68041 268.804 7.17197 271.164 2 271C-0.928648 280.386 0 290.24 0 300L0 348C3.16998 348 16.9698 346.19 16.0787 351.91C15.3095 356.848 3.4747 355 0 355L0 381C5.2084 383.944 3 391.672 3 397C5.6835 397 15.7932 395.615 15.7932 400C15.7932 403.796 6.59134 403.673 4 404C4 409.471 5.42409 416.009 0 419L0 444C5.77252 444 11.2785 444.277 17 445C15.6967 453.172 6.4325 451 0 451L0 519C3.49174 520.057 4.43196 521.418 5 525C7.99714 526.088 9.05156 526.95 10 530C15.7668 531.693 15.1094 536.52 9 536C10.4398 541.131 9.79983 543.648 4 543C2.84645 545.249 2.24891 545.846 0 547C0 553.617 -2.3875 565.99 1.02778 571.787C4.14954 577.086 12.4844 579.04 16.6628 583.662C18.4635 585.654 18.5935 589.251 14.9406 588.629C12.0696 588.14 9.40741 585.434 7.01466 583.916C4.73706 582.471 2.45423 581.097 0 580L0 609C0 612.344 -0.930105 617.464 1.02778 620.391C3.78641 624.515 10.1469 626.711 13.9761 629.76C15.4604 630.942 18.492 633.301 17.0787 635.552C15.9041 637.424 13.4229 636.233 11.9992 635.474C7.91083 633.295 4.39959 630.602 0 629C0 637.888 1.74851 646.303 2 655C6.25885 652.971 8.59714 653.223 10 658L15 658L15 664L7 664C8.6804 668.804 7.172 671.164 2 671C-0.928612 680.386 0 690.24 0 700L0 748C3.16997 748 16.9699 746.19 16.0787 751.911C15.3095 756.848 3.47469 755 0 755L0 781C5.619 784.098 4 791.355 4 797C10.0803 797 14.3881 799.019 20.0895 799.857C28.0801 801.03 36.923 800 45 800C44.8368 796.2 41.7851 786.378 46.2986 784.176C48.5202 783.092 50.1518 785.139 50.6821 787.059C51.7674 790.989 51 795.944 51 800L126 800C121.942 796.266 122.35 793.179 128 792C128.934 788.873 129.873 787.934 133 787C134.802 780.862 139.105 782.287 140 788C144.118 785.875 146.401 787.384 146 792C151.435 795.376 148.14 798.608 143 799C148.943 801.494 157.588 800.013 164 800C166.46 799.995 169.433 800.338 171.621 798.972C174.902 796.925 176.862 792.085 179.036 789C180.32 787.177 185.305 779.132 188.264 782.662C189.673 784.344 188.087 786.547 187.158 788.001C184.602 792.003 181.893 795.612 180 800L207 800C210.719 800 216.168 800.986 219.621 799.397C222.693 797.983 224.546 793.679 226.333 791C227.699 788.954 232.774 779.643 236.264 782.89C237.761 784.284 236.348 786.647 235.593 788.004C233.292 792.136 230.305 795.86 228 800L250 800C251.178 796.118 253.048 795.301 257 795C256.342 790.723 256.598 788.34 261 787C262.244 779.228 267.551 783.07 268 789C272.634 788.606 274.22 790.529 273 795C276.127 795.934 277.066 796.873 278 800L348 800C348 796.525 346.152 784.69 351.09 783.921C356.81 783.03 355 796.83 355 800C363.016 800 371.987 801.146 379.896 799.853C382.375 799.447 383.857 797.436 386.209 796.87C389.445 796.09 393.65 796.998 397 797C397 791.563 397.319 786.388 398 781C405.72 782.235 403 790.917 403 797C406.235 797 409.784 796.609 412.961 797.299C415.475 797.844 417.518 799.479 420.09 799.857C428.08 801.03 436.923 800 445 800C444.837 796.2 441.785 786.378 446.299 784.176C448.52 783.092 450.152 785.139 450.682 787.059C451.767 790.989 451 795.943 451 800L526 800C521.942 796.266 522.35 793.179 528 792C528.934 788.873 529.873 787.934 533 787C534.802 780.862 539.105 782.287 540 788C544.118 785.875 546.401 787.384 546 792C551.435 795.376 548.14 798.608 543 799C548.943 801.494 557.588 800.013 564 800C566.489 799.995 569.444 800.32 571.671 798.972C575.043 796.931 576.854 792.134 579.039 789C580.315 787.171 585.309 779.135 588.264 782.662C589.673 784.344 588.087 786.547 587.158 788.001C584.602 792.003 581.893 795.612 580 800L607 800C610.719 800 616.168 800.986 619.621 799.397C622.997 797.843 624.923 792.945 626.862 790C628.172 788.01 632.986 779.841 636.264 782.89C637.761 784.284 636.347 786.647 635.593 788.004C633.31 792.105 630.442 795.474 629 800L650 800L650 795L657 795C656.342 790.723 656.598 788.34 661 787C662.244 779.228 667.551 783.07 668 789C672.634 788.606 674.22 790.529 673 795C676.127 795.934 677.066 796.873 678 800L748 800C748 796.525 746.152 784.69 751.089 783.921C756.81 783.03 755 796.83 755 800C763.016 800 771.987 801.146 779.896 799.853C782.375 799.447 783.857 797.436 786.209 796.87C789.445 796.09 793.65 796.998 797 797C797 793.137 796.476 788.83 797.299 785.039C797.844 782.525 799.479 780.482 799.857 777.911C800.89 770.873 800 763.112 800 756C796.525 756 784.69 757.848 783.921 752.911C783.03 747.19 796.83 749 800 749L800 675C796.598 673.929 795.718 672.456 795 669C792.003 667.912 790.948 667.05 790 664C783.862 662.198 785.287 657.895 791 657C788.704 650.488 794.564 648.747 800 647C800 641.954 801.752 632.899 798.972 628.518C796.237 624.208 789.837 621.851 786.023 618.536C784.754 617.432 779.949 612.789 783.492 611.342C785.387 610.568 787.596 612.575 789.001 613.549C792.607 616.047 795.809 618.61 800 620L800 593C800 589.281 800.986 583.832 799.397 580.379C797.983 577.307 793.679 575.454 791 573.667C788.958 572.304 779.639 567.222 782.89 563.736C784.304 562.22 786.659 563.701 788.004 564.488C792.073 566.868 795.368 569.808 800 571C800 564.102 800.641 556.856 799.871 550C799.447 546.226 798.111 542.85 798 539C793.845 540.632 791.394 540.575 790 536C783.106 533.954 786.458 529.623 792 529C791.857 524.495 793.42 522.611 798 523C800.839 513.901 800 504.461 800 495L800 452C796.83 452 783.03 453.81 783.921 448.09C784.69 443.152 796.525 445 800 445C800 437.449 800.714 429.504 799.871 422C799.158 415.65 797.509 409.448 797 403C793.728 403 789.209 403.77 786.164 402.397C784.007 401.424 783.069 398.585 785.453 397.197C788.144 395.629 793.912 396.998 797 397C797 393.137 796.476 388.83 797.299 385.039C797.844 382.525 799.479 380.482 799.857 377.91C800.89 370.873 800 363.112 800 356C796.525 356 784.69 357.848 783.921 352.91C783.03 347.19 796.83 349 800 349L800 275C796.598 273.929 795.718 272.456 795 269C792.003 267.912 790.948 267.05 790 264C783.862 262.198 785.287 257.895 791 257C788.704 250.488 794.564 248.747 800 247C800 241.954 801.752 232.899 798.972 228.518C796.476 224.584 790.644 222.283 787.005 219.522C785.405 218.308 779.64 214.334 782.662 211.875C784.339 210.511 786.526 211.949 788.001 212.867C792.073 215.404 795.388 218.471 800 220L800 193C800 189.281 800.986 183.832 799.397 180.379C797.983 177.307 793.679 175.454 791 173.667C788.958 172.304 779.639 167.222 782.89 163.736C784.305 162.22 786.659 163.701 788.004 164.488C792.073 166.868 795.368 169.808 800 171C800 164.102 800.641 156.856 799.871 150C799.447 146.226 798.111 142.85 798 139C793.845 140.631 791.394 140.575 790 136C783.106 133.954 786.458 129.623 792 129C791.857 124.495 793.42 122.611 798 123C800.839 113.901 800 104.461 800 95L800 52C796.83 52 783.03 53.8099 783.921 48.0895C784.69 43.152 796.525 45 800 45C800 37.4493 800.714 29.5045 799.871 22C799.158 15.6496 797.509 9.44769 797 3C793.765 3 790.216 3.39075 787.039 2.70142C784.525 2.15594 782.482 0.521118 779.911 0.143494C771.92 -1.02966 763.077 0 755 0C755.754 5.96692 755.754 11.0331 755 17C746.828 15.6967 749 6.4325 749 0C723.918 0 696.52 -3.03363 672 2C670.676 4.68658 669.687 5.6759 667 7C665.227 12.8192 660.87 11.4477 660 6C653.094 8.46521 654.86 2.46552 649.657 0.513855C645.004 -1.23126 635.915 -0.64917 631.04 0.148132C623.877 1.31976 621.455 12.258 616.385 16.6628C611.022 21.3217 611.238 14.4096 613.546 11L616.3 7.00153C617.757 4.74432 618.939 2.45886 620 0L593 0C589.281 0 583.832 -0.985596 580.379 0.603394C577.004 2.15649 575.077 7.05493 573.138 10C571.865 11.9346 566.923 20.2986 563.736 17.2485C562.235 15.8116 563.637 13.3939 564.407 11.9992C566.678 7.8902 569.557 4.52838 571 0L543 0C543.659 3.99548 542.952 5.79761 539 7C536.936 13.5099 532.418 10.471 532 5C527.829 5.35901 526.361 3.86401 525 0L452 0C452 3.17004 453.81 16.9698 448.09 16.0787C443.152 15.3095 445 3.47473 445 0C436.923 0 428.08 -1.02966 420.09 0.143494C414.707 0.933716 409.616 3.29028 404 4C404 6.3667 405.284 19.5457 400.259 17.6544C396.841 16.3677 397.247 6.12524 397 3C393.765 3 390.216 3.39069 387.039 2.70142C384.525 2.15594 382.482 0.521118 379.91 0.143494C371.92 -1.02966 363.077 0 355 0C355.513 4.06207 356.938 8.97778 355.258 12.9368C354.617 14.4459 353.172 16.3434 351.274 15.6544C347.275 14.2026 349 3.33398 349 0C323.918 0 296.52 -3.03357 272 2C270.676 4.68677 269.687 5.6759 267 7C265.227 12.8192 260.869 11.4477 260 6C253.242 8.4126 254.912 2.77258 249.856 0.603394C245.364 -1.32336 235.826 -0.634583 231.04 0.148132C223.877 1.3197 221.455 12.2579 216.385 16.6628C211.022 21.3218 211.238 14.4095 213.546 11L216.3 7.00153C217.757 4.7442 218.939 2.45886 220 0L193 0C189.281 0 183.832 -0.985535 180.379 0.603394C177.003 2.15662 175.077 7.05493 173.138 10C171.865 11.9346 166.923 20.2986 163.736 17.2485C162.235 15.8116 163.637 13.3938 164.407 11.9992C166.678 7.89026 169.557 4.52832 171 0L143 0C143.659 3.99542 142.952 5.79761 139 7C136.936 13.51 132.418 10.4709 132 5C127.829 5.35901 126.361 3.86395 125 0L52 0C52 3.16998 53.8099 16.9698 48.0895 16.0787C43.1521 15.3095 45 3.47467 45 0C36.923 0 28.0801 -1.02966 20.0895 0.143494C14.7072 0.933716 9.61566 3.29028 4 4z"/>
<path style="fill:#fddebf; stroke:none;" d="M45 0C45 3.17084 43.0771 18.9805 49.7014 16.338C53.8587 14.6796 52 3.60956 52 0L45 0M125 0C125.899 4.31195 127.576 5.99817 132 5C132.195 10.9512 137.719 14.374 139 7C142.621 6.39563 146.214 1.91089 140.852 0.317871C136.169 -1.07318 129.867 0 125 0M179 0C171.494 0.0266113 169.641 2.87567 165.671 9C164.358 11.0255 161.879 14.0546 162.737 16.6775C164.441 21.8884 170.548 14.7221 171.791 12.9954C172.951 11.3832 173.988 9.67987 175.046 8C176.7 5.37408 178.06 2.95013 179 0M228 0C220.23 0.0274658 218.545 2.88354 214.258 9C212.84 11.0244 209.961 13.9331 210.75 16.6813C212.393 22.4021 218.982 14.7289 220.254 12.9954C221.436 11.3834 222.517 9.69519 223.575 8C225.201 5.39459 226.701 2.77808 228 0M251 0C253.19 4.87109 254.196 8.98132 260 6C260.463 11.9469 265.899 13.5979 267 7C270.127 6.0658 271.066 5.12659 272 2C273.878 1.82416 275.199 1.56183 277 1C269.831 -2.00812 258.761 0 251 0M349 0C349 3.57263 347.267 13.6275 350.588 15.9136C352.896 17.5023 354.967 14.9407 355.566 12.9413C356.786 8.87195 355.753 4.05676 355 0L349 0M383 0C385.853 4.40045 392.255 3 397 3C397.129 6.00983 396.77 18.3642 401 18.3642C405.668 18.3642 404 6.92963 404 4C408.434 3.65002 414.437 3.95459 417 0L383 0M445 0C445 3.1709 443.077 18.9805 449.701 16.338C453.859 14.6796 452 3.60968 452 0L445 0M525 0C525.899 4.31183 527.576 5.99817 532 5C532.195 10.9512 537.719 14.374 539 7C542.621 6.39563 546.214 1.91083 540.852 0.317871C536.17 -1.07318 529.867 0 525 0M579 0C571.494 0.0266113 569.641 2.87573 565.671 9C564.358 11.0255 561.879 14.0547 562.737 16.6775C564.441 21.8884 570.548 14.722 571.791 12.9954C572.951 11.383 573.988 9.67993 575.046 8C576.7 5.37421 578.06 2.95013 579 0M628 0C620.23 0.0274658 618.545 2.88361 614.258 9C612.84 11.0244 609.961 13.933 610.75 16.6813C612.393 22.402 618.982 14.7289 620.254 12.9954C621.436 11.3834 622.517 9.69519 623.575 8C625.201 5.39465 626.701 2.77814 628 0M651 0C652.95 4.94031 654.313 8.92078 660 6C660.463 11.947 665.899 13.5978 667 7C670.127 6.0658 671.066 5.12665 672 2C673.878 1.82416 675.199 1.56189 677 1C669.832 -2.00812 658.761 0 651 0M749 0C749 6.47217 746.497 16.3376 755 17C756.086 11.1479 756.086 5.85205 755 0L749 0M783 0C785.853 4.40045 792.255 3 797 3C797.223 8.20386 797.529 14.0243 799 19C801.295 13.5309 800 5.90118 800 0L783 0M75 3.42438C72.6812 3.72998 68.6236 3.42419 66.7616 5.02704C64.3287 7.12128 66.5808 10.0962 69.0594 10.5926C71.8572 11.153 75.1537 10.0844 78 10.0146C84.3192 9.85986 91.8409 11.1943 97.9414 9.27625C101.922 8.0246 102.508 3.92578 97.9414 3.14813C90.9717 1.96143 81.9861 2.5036 75 3.42438M328.995 3.48303C322.198 3.79004 312.683 2.33014 306.229 4.31787C302.896 5.34467 302.831 9.68127 306.229 10.6782C309.01 11.4941 312.21 10.4353 315 10.1697C320.118 9.68268 327.095 11.4444 331.847 9.25769C336.711 7.01947 332.669 3.31714 328.995 3.48303M480 3.42438C477.651 3.73273 475.372 3.95221 473.001 3.99695C471.082 4.03314 468.347 3.66669 466.762 5.02704C464.324 7.11841 466.585 10.0969 469.059 10.5926C471.857 11.153 475.154 10.0844 478 10.0146C484.153 9.86395 490.945 10.8949 496.981 9.51697C500.201 8.78192 503.834 4.79724 498.851 3.31787C493.552 1.74481 485.421 2.71259 480 3.42438M728.995 3.48303C722.127 3.79321 712.691 2.36688 706.149 4.31787C702.707 5.34436 702.803 9.67712 706.228 10.6782C709.012 11.4917 712.208 10.4355 715 10.1697C720.118 9.68268 727.095 11.4444 731.847 9.25769C736.711 7.01941 732.669 3.31714 728.995 3.48303M40.9961 22.0471C34.9824 24.8603 27.2493 34.6259 23.4383 40C21.604 42.5867 20.9535 48.6512 26.0193 46.8241C31.3407 44.9047 35.3869 37.9836 39.0895 34C41.1808 31.75 43.7844 29.663 45.3773 27.0046C47.576 23.3354 45.0046 20.172 40.9961 22.0471M354.337 22.1366C351.348 23.7805 353.695 27.2453 355.153 28.9992C359.598 34.3462 365.673 39.3885 371 43.8511C372.579 45.1736 375.225 47.3741 377.392 45.9136C380.312 43.9447 377.386 39.7802 375.852 38.0394C371.602 33.2178 365.993 28.2791 361 24.2292C359.277 22.8315 356.663 20.8577 354.337 22.1366M440.996 22.0471C434.982 24.8603 427.249 34.6259 423.438 40C421.604 42.5867 420.953 48.6512 426.019 46.8241C431.341 44.9047 435.387 37.9836 439.09 34C441.181 31.7501 443.784 29.663 445.377 27.0046C447.576 23.3355 445.005 20.1719 440.996 22.0471M754.337 22.1366C751.348 23.7805 753.695 27.2452 755.153 28.9992C759.598 34.3462 765.673 39.3885 771 43.8511C772.579 45.1736 775.225 47.3741 777.392 45.9136C780.312 43.9447 777.386 39.7802 775.852 38.0394C771.602 33.2179 765.992 28.279 761 24.2292C759.277 22.8316 756.663 20.8578 754.337 22.1366M52.3225 41.2562C49.4566 42.4965 50.8904 45.8532 52.2832 47.561C56.1146 52.2591 61.443 57.3515 66.1698 61.1373C67.8809 62.5078 70.3558 64.2383 72.6775 63.338C75.5881 62.2091 74.0475 58.8531 72.6775 57.169C68.9082 52.5358 63.4904 48.069 59 44.1096C57.3437 42.6491 54.7753 40.1946 52.3225 41.2562M344.281 41.0471C337.492 44.6394 330.092 55.1193 325.149 60.9992C323.497 62.9639 320.61 69.2836 326.059 68.1682C328.851 67.5966 331.07 64.8881 333 62.9954C338.205 57.8898 344.723 52.3925 348.392 46.0046C350.321 42.6464 348.265 38.939 344.281 41.0471M452.323 41.2562C449.456 42.4966 450.89 45.8532 452.283 47.561C456.115 52.2592 461.443 57.3515 466.17 61.1373C467.881 62.5079 470.356 64.2384 472.677 63.338C475.588 62.209 474.042 58.8669 472.692 57.1729C468.968 52.499 463.484 48.058 459 44.1096C457.342 42.65 454.776 40.1942 452.323 41.2562M744.281 41.0471C741.522 42.5074 739.359 45.6435 737.296 47.9105C733.309 52.2932 728.955 56.4709 725.149 60.9992C723.498 62.964 720.61 69.2837 726.059 68.1682C728.851 67.5966 731.07 64.888 733 62.9954C738.205 57.8896 744.723 52.3925 748.392 46.0046C750.321 42.6466 748.265 38.9382 744.281 41.0471M0 44L0 51C6.47226 51 16.3374 53.5035 17 45C11.3212 43.9457 5.75714 44 0 44M417 45C412.661 44.1944 408.42 43.8461 404 44.0394C400.978 44.1715 398.022 44.8283 395 44.9606C392.119 45.0868 388.089 44.2509 385.434 45.6034C383.067 46.8095 382.87 50.174 385.322 51.3966C391.142 54.2984 400.8 51.0804 407 51.0038C409.519 50.9728 413.246 51.6155 415.397 49.9768C416.975 48.7743 416.863 46.7584 417 45M800 52L800 45C796.829 45 781.02 43.077 783.662 49.7014C785.32 53.8586 796.39 52 800 52M41.7469 51.0856C38.8852 53.035 41.5024 56.5681 43.1343 58.196C48.5402 63.5887 54.3188 68.837 60 73.9375C61.8341 75.5841 64.8728 78.3707 67.3773 76.2137C70.1372 73.8368 66.5871 70.5929 64.9414 68.9105C59.8376 63.6932 54.6564 58.5107 49 53.8889C47.2772 52.4813 44.191 49.4208 41.7469 51.0856M195 54C190.065 52.877 188.784 55.4343 190 60C183.741 60.999 183.741 66.001 190 67C190.934 70.1266 191.873 71.0658 195 72C195.574 76.9872 199.984 80.0821 202 74C206.877 74.8131 208.621 72.8398 208 68C214.33 67.6523 218.168 62.3027 210 61C209.181 56.0933 206.416 55.9972 202 57C201.832 51.8929 197.296 47.0859 195 54M353.594 51.0432C351.257 52.4084 349.417 55.3448 347.56 57.2847C344.299 60.6918 339.885 63.9089 337.518 68.0386C335.895 70.8718 336.371 75.6913 340.719 73.8519C343.347 72.7401 345.283 69.9738 347.174 67.9599C350.7 64.204 355.725 60.5773 358.199 56.0046C360.016 52.647 357.274 48.8932 353.594 51.0432M441.747 51.0856C438.888 53.0328 441.498 56.5708 443.134 58.1952C448.539 63.5589 454.315 68.8731 460.001 73.9413C461.84 75.5813 464.871 78.3724 467.377 76.2137C470.137 73.8367 466.587 70.5928 464.941 68.9105C459.838 63.6932 454.656 58.5107 449 53.8889C447.277 52.4813 444.191 49.4208 441.747 51.0856M595 54C589.987 52.8589 589.049 55.4296 590 60C583.741 60.999 583.741 66.001 590 67C590.934 70.1267 591.873 71.0657 595 72C595.574 76.9872 599.984 80.0822 602 74C606.795 74.7994 608.902 72.84 608 68C614.33 67.6523 618.168 62.3027 610 61C609.181 56.0933 606.416 55.9972 602 57C601.834 51.9442 597.38 47.2345 595 54M753.594 51.0432C751.257 52.4084 749.417 55.3448 747.56 57.2847C744.299 60.6918 739.885 63.9089 737.519 68.0386C735.895 70.8718 736.371 75.6913 740.719 73.8519C743.347 72.74 745.283 69.9738 747.174 67.9599C750.7 64.204 755.725 60.5773 758.199 56.0046C760.016 52.6471 757.274 48.8932 753.594 51.0432M5.30247 66.1366C2.80884 67.5314 3.48945 70.6897 3.71914 73C4.36746 79.521 3.01995 86.458 4.14815 92.8912C4.53958 95.1233 6.19593 97.1081 8.70139 96.1489C11.1336 95.2178 10.9901 92.1199 10.8256 89.9962C10.3038 83.2609 11.0105 75.7127 9.85185 69.1088C9.46741 66.9175 7.73838 64.7741 5.30247 66.1366M391.299 66.0864C388.504 67.7329 389.426 71.3961 389.715 74C390.49 80.9651 389.377 88.0461 390.174 94.9992C390.426 97.1899 391.868 103.398 395.416 100.914C397.608 99.3782 396.995 95.2783 397 93C397.015 85.922 396.972 79.0308 396.165 72.0008C395.884 69.5519 395.388 63.6785 391.299 66.0864M405.302 66.1366C402.809 67.5313 403.489 70.6898 403.719 73C404.367 79.5211 403.02 86.4579 404.148 92.8912C404.537 95.1098 406.197 97.1224 408.698 96.1489C411.249 95.1557 410.491 92.0831 410.281 89.9962C409.614 83.368 410.556 76.6602 409.941 70.0439C409.722 67.6793 408.273 64.475 405.302 66.1366M791.299 66.0864C788.503 67.733 789.426 71.3961 789.715 74C790.49 80.9651 789.377 88.0461 790.174 94.9992C790.426 97.1899 791.868 103.398 795.416 100.914C797.608 99.3782 796.995 95.2783 797 93C797.015 85.9219 796.972 79.0309 796.165 72.0008C795.884 69.5518 795.388 63.6785 791.299 66.0864M88 88C84.0723 90.1616 83.5774 93.2153 88 95C86.7583 96.9849 83.9261 100.131 85.1752 102.664C86.2644 104.872 89.0636 104.178 91.0008 104.13C95.2015 104.028 97.5969 104.425 99 100C103.916 102.972 109.527 102.954 106 96L110 96C109.7 92.1357 108.911 90.6517 105 90C105.528 89.3071 106.498 88.2349 106.959 87.4213C111.295 79.7656 99.96 82.2086 96 82.1805C93.5717 82.1633 89.7581 80.7534 87.608 82.2284C85.2518 83.8449 86.8514 86.3429 88 88M297 95C294.071 100.331 293.232 105.616 301 104C302.003 108.681 306.257 106.91 307 103C310.814 104.572 318.831 103.3 313 99C315.286 93.5083 318.571 81.4514 309 84C306.54 80.5308 303.333 80.995 302 85C299.952 83.684 296.968 81.0356 294.319 81.8171C292.002 82.5007 292.562 85.1953 292.648 87.0046C292.853 91.2944 292.133 94.1521 297 95M488 88C484.072 90.1616 483.577 93.2153 488 95C486.758 96.9849 483.926 100.131 485.175 102.664C486.264 104.872 489.064 104.178 491.001 104.13C495.202 104.028 497.597 104.425 499 100C503.916 102.972 509.527 102.954 506 96L510 96C509.7 92.1356 508.911 90.6517 505 90C505.528 89.307 506.498 88.235 506.959 87.4213C511.295 79.7656 499.96 82.2086 496 82.1805C493.572 82.1634 489.758 80.7534 487.608 82.2284C485.252 83.845 486.851 86.343 488 88M697 95C694.071 100.331 693.232 105.616 701 104C702.003 108.681 706.257 106.91 707 103C716.322 106.843 714.546 99.7657 714.769 93C714.847 90.6533 716.361 86.6802 714.921 84.6065C713.497 82.5576 710.879 83.4997 709 84C706.54 80.5308 703.333 80.995 702 85C699.967 83.796 696.88 81.1553 694.323 81.8311C691.991 82.4471 692.564 85.2373 692.648 87.0046C692.853 91.2942 692.133 94.1522 697 95M205 138C207.265 137.528 209.359 137.145 210.397 134.772C211.578 132.071 210.613 128.774 210.285 126C209.549 119.756 212.431 108.67 208.822 103.323C207.481 101.336 204.769 100.977 203.603 103.323C202.169 106.205 203 110.871 203 114C203 117.327 202.894 120.675 203.039 124C203.242 128.637 203.923 133.491 205 138M604.588 102.086C602.387 103.601 603.005 107.734 603 110C602.985 117.07 602.951 123.981 603.846 130.999C604.147 133.367 604.789 139.281 608.726 136.914C611.043 135.52 611.005 132.349 610.826 130C610.245 122.411 610.75 114.541 609.891 107.005C609.629 104.705 607.813 99.8663 604.588 102.086M269 103C269.004 108.909 269.715 114.295 271.293 120C272.302 123.644 273.276 127.312 274.112 131C274.638 133.319 274.919 135.652 275.272 138C275.721 140.994 279.503 150.258 282.357 142.851C283.358 140.255 282.252 136.609 281.715 134C280.331 127.28 278.323 120.677 276.745 114C276.097 111.255 276.246 107.746 274.684 105.318C273.33 103.214 271.243 103.174 269 103M669 103C669.004 108.909 669.715 114.295 671.293 120C672.301 123.641 673.241 127.297 673.996 131C674.778 134.833 674.633 140.241 676.564 143.677C678.043 146.31 681.373 145.517 682.306 142.851C683.332 139.922 681.602 135.923 681.084 133C679.886 126.238 678.014 119.69 676.499 113C675.9 110.353 675.938 106.753 674.066 104.603C672.732 103.072 670.844 103.144 669 103M190.603 107.072C188.504 108.6 189.48 111.888 189.715 114C190.411 120.253 189.14 126.79 190.148 132.981C190.494 135.107 192.005 138.16 194.698 136.824C197.23 135.567 196.501 132.215 196.281 130C195.633 123.479 196.979 116.543 195.852 110.109C195.44 107.759 193.11 105.245 190.603 107.072M590.603 107.072C588.504 108.6 589.48 111.887 589.715 114C590.412 120.253 589.14 126.79 590.148 132.981C590.494 135.107 592.005 138.16 594.698 136.824C597.23 135.567 596.501 132.215 596.281 130C595.633 123.479 596.979 116.543 595.852 110.109C595.44 107.759 593.11 105.245 590.603 107.072M140.981 117.548C130.541 118.03 119.141 121.555 109.005 124.019C106.564 124.612 100.417 127.997 105.323 130.397C107.834 131.625 111.418 130.704 114 130.192C121.053 128.793 127.932 126.605 135 125.2C137.758 124.651 142.137 124.662 144.392 122.829C147.731 120.114 143.835 117.416 140.981 117.548M540.981 117.534C530.448 117.803 518.122 121.349 508.019 124.255C504.956 125.136 501.039 129.233 506.149 130.678C514.249 132.969 526.938 126.803 535 125.2C537.758 124.651 542.137 124.662 544.392 122.829C547.761 120.09 543.8 117.462 540.981 117.534M0 119L0 147L4 147L4 143C10.1434 144.278 11.2152 141.359 9 136C15.7673 137.508 16.8453 131.093 10 130C9.41249 126.597 8.35058 125.728 5 125C4.69979 121.136 3.91078 119.652 0 119M398 123C393.075 121.902 391.202 124.156 392 129C385.794 129.343 381.966 134.716 390 136C390.848 141.083 393.835 141.181 398 139C398.059 144.017 398.589 146.578 404 147L404 143C410.143 144.278 411.215 141.359 409 136C415.767 137.508 416.845 131.093 410 130C409.413 126.597 408.351 125.728 405 125C404.601 119.879 400.004 116.966 398 123M799 119L798 123C793.075 121.902 791.203 124.156 792 129C785.795 129.343 781.966 134.716 790 136C790.848 141.083 793.835 141.181 798 139C798.021 141.85 798.19 144.271 799 147C801.604 140.794 801.604 125.206 799 119M200 151.424C197.314 151.777 194.711 151.981 192 151.999C189.639 152.015 186.414 151.572 184.362 153.024C181.624 154.962 183.618 157.795 186.11 158.566C190.239 159.844 194.841 158.374 199 158.089C203.686 157.769 209.328 159.026 213.852 157.682C217.35 156.643 217.351 152.357 213.852 151.318C209.813 150.118 204.112 150.885 200 151.424M600 151.424C597.314 151.777 594.711 151.981 592 151.999C589.639 152.015 586.414 151.572 584.362 153.024C581.624 154.962 583.618 157.795 586.11 158.566C590.239 159.844 594.841 158.374 599 158.089C603.686 157.769 609.328 159.026 613.852 157.682C617.351 156.643 617.35 152.357 613.852 151.318C609.813 150.118 604.112 150.885 600 151.424M173.981 156.176C167.419 158.542 159 169.969 155.037 175.576C153.479 177.78 152.833 182.628 157.059 182.079C159.414 181.773 161.383 179.556 162.961 177.981C167.589 173.36 173.971 167.646 177.238 162.001C178.829 159.253 178.148 154.673 173.981 156.176M573.981 156.176C567.419 158.542 559 169.969 555.037 175.576C553.479 177.78 552.833 182.628 557.059 182.079C559.421 181.772 561.387 179.545 562.985 177.981C567.652 173.413 573.972 167.646 577.238 162.001C578.829 159.253 578.148 154.673 573.981 156.176M222.449 157.086C219.088 159.162 222.361 163.127 224.062 164.996C228.478 169.847 233.904 174.645 239 178.771C240.725 180.167 243.336 182.143 245.663 180.863C248.648 179.222 246.312 175.753 244.847 174.004C240.431 168.73 234.439 164.189 229.285 159.634C227.554 158.104 224.956 155.538 222.449 157.086M622.333 157.086C618.891 159.142 622.374 163.149 624.059 164.999C628.511 169.887 633.86 174.618 639 178.772C640.824 180.245 643.997 182.548 646.377 180.777C649.247 178.642 645.453 174.631 643.941 173.015C639.484 168.249 634.179 163.957 629.286 159.634C627.5 158.057 624.91 155.548 622.333 157.086M382.762 163.083C379.04 165.824 385.066 170.272 387.005 171.655C394.13 176.74 401.794 180.941 409.001 185.908C411.115 187.365 414.637 190.592 417.392 188.767C421.115 186.3 415.832 182.067 413.981 180.63C406.831 175.078 398.538 170.854 391 165.813C389.046 164.507 385.264 161.24 382.762 163.083M800 179L800 171C795.881 169.29 787.895 161.24 783.438 162.737C779.983 163.897 782.583 167.997 784.152 169.482C788.365 173.469 794.501 177.248 800 179M0 172C0.0270635 179.888 2.75228 181.602 9.00077 185.908C11.0729 187.336 13.9086 189.987 16.6813 189.114C18.7599 188.46 18.8927 186.078 17.9529 184.448C16.1598 181.339 11.9354 178.981 9 177.089C6.10542 175.224 3.04417 173.603 0 172M61 190C55.5335 190.874 55.3914 193.676 58 198C56.045 198.023 53.249 197.672 51.6173 199.027C48.6797 201.466 51.6797 204.184 54 205C52.8769 209.935 55.4344 211.216 60 210C60.999 216.259 66.0011 216.259 67 210C70.4029 209.412 71.272 208.351 72 205C77.121 204.601 80.0338 200.004 74 198C74.8131 193.123 72.8398 191.379 68 192C67.7834 185.349 61.9778 181.506 61 190M197 200C193.866 199.991 187.174 198.182 184.608 200.066C182.544 201.582 183.484 204.484 185.319 205.682C188.687 207.881 194.175 207 198 207L198 222C206.045 221.373 204 213.236 204 207C207.305 206.998 211.769 207.593 214.677 205.683C216.296 204.62 217.093 202.432 215.377 201.023C212.672 198.802 206.297 200 203 200C203.002 196.53 205.137 188.357 202.958 185.623C201.243 183.47 198.474 185.159 197.603 187.149C196.035 190.731 197 196.156 197 200M333 190C329.873 190.934 328.934 191.873 328 195C322.879 195.399 319.966 199.996 326 202C325.187 206.877 327.16 208.621 332 208C332.359 214.535 338.018 218.531 339 210C343.907 209.181 344.003 206.416 343 202C344.902 201.938 347.664 202.21 348.93 200.4C352.594 195.162 344.728 188.741 340 190C339.001 183.741 333.999 183.741 333 190M461 190C455.533 190.874 455.391 193.676 458 198C456.045 198.023 453.249 197.672 451.617 199.027C448.68 201.466 451.68 204.184 454 205C452.877 209.935 455.434 211.216 460 210C460.999 216.259 466.001 216.259 467 210C470.403 209.412 471.272 208.351 472 205C477.121 204.601 480.034 200.004 474 198C474.813 193.123 472.84 191.379 468 192C467.783 185.349 461.978 181.506 461 190M597 200C593.865 199.991 587.176 198.183 584.608 200.066C582.646 201.506 583.339 204.407 585.319 205.397C588.601 207.04 594.354 206.844 598 207L598 222C606.045 221.373 604 213.236 604 207C607.305 206.998 611.769 207.593 614.677 205.683C616.296 204.62 617.093 202.432 615.377 201.023C612.672 198.802 606.297 200 603 200C603 196.506 604.963 188.415 602.937 185.608C601.165 183.154 598.175 184.861 597.434 187.148C596.193 190.977 597 196.01 597 200M733 190C729.873 190.934 728.934 191.873 728 195C722.879 195.399 719.966 199.996 726 202C725.189 206.928 727.072 208.811 732 208C732.359 214.535 738.018 218.531 739 210C743.907 209.181 744.003 206.416 743 202C744.902 201.938 747.664 202.209 748.93 200.4C752.595 195.162 744.728 188.741 740 190C739.001 183.741 733.999 183.741 733 190M149.599 187.047C147.415 188.675 148.001 192.648 148 195C147.997 201.855 148.425 209.131 149.059 215.956C149.264 218.163 150.635 221.561 153.505 219.863C155.975 218.403 155.921 214.47 155.985 212C156.166 205.117 156.006 196.832 154.852 190.059C154.435 187.613 152.178 185.124 149.599 187.047M245 186C244.194 190.339 243.846 194.58 244.039 199C244.171 202.022 244.828 204.978 244.961 208C245.095 211.06 244.327 214.974 245.603 217.847C246.645 220.192 249.363 220.968 250.973 218.663C254.574 213.507 251.157 202.794 251.015 197C250.949 194.338 251.596 190.793 250.398 188.318C249.335 186.12 247.103 186.164 245 186M549.599 187.047C547.415 188.675 548.001 192.648 548 195C547.997 201.855 548.425 209.131 549.059 215.956C549.264 218.163 550.635 221.561 553.505 219.863C555.975 218.403 555.921 214.47 555.985 212C556.166 205.117 556.006 196.832 554.852 190.059C554.435 187.613 552.178 185.124 549.599 187.047M645 186C644.196 190.33 643.788 194.588 644.089 199C644.296 202.02 644.911 204.965 644.985 208C645.06 211.041 644.336 214.993 645.603 217.847C646.645 220.192 649.363 220.968 650.973 218.663C654.574 213.507 651.157 202.794 651.015 197C650.949 194.338 651.596 190.793 650.398 188.318C649.335 186.12 647.103 186.164 645 186M128.995 192.468C121.318 193.006 113.701 192.896 106 193.004C103.668 193.036 99.7617 192.747 98.662 195.414C96.9796 199.496 102.471 199.948 105.001 199.995C112.785 200.143 125.56 201.887 132.681 198.258C137.693 195.704 132.306 192.236 128.995 192.468M288.999 192.425C283.318 193.136 277.708 192.835 272.001 193.015C270.128 193.075 267.303 192.972 266.086 194.738C264.189 197.491 267.742 199.478 270.019 199.566C274.909 199.756 280.056 199.002 285 199C287.784 198.999 291.242 199.45 293.848 198.258C300.581 195.178 292.704 191.962 288.999 192.425M528.995 192.468C521.318 193.006 513.701 192.896 506 193.004C503.668 193.036 499.762 192.747 498.662 195.414C496.98 199.496 502.471 199.948 505.001 199.995C512.785 200.143 525.56 201.887 532.681 198.258C537.693 195.704 532.306 192.236 528.995 192.468M688.999 192.425C683.318 193.136 677.708 192.835 672.001 193.015C670.128 193.075 667.304 192.972 666.086 194.738C664.189 197.491 667.742 199.478 670.019 199.566C674.909 199.756 680.056 199.002 685 199C687.784 198.999 691.242 199.45 693.848 198.258C700.581 195.178 692.704 191.962 688.999 192.425M103 208C103.203 209.761 103.185 211.765 104.742 212.977C106.632 214.448 109.771 213.995 112 214C117.322 214.011 129.425 215.993 133.338 211.416C138.285 205.629 125.04 206.972 123 206.996L115 207C110.896 207.002 107.037 207.251 103 208M274 206.425C271.81 206.724 268.395 206.677 266.623 208.177C264.613 209.879 266.031 212.562 268.149 213.308C270.52 214.143 273.557 213.145 276 213.039C282.623 212.752 292.724 215.079 298.851 212.397C302.617 210.748 301.678 206.786 297.941 206.148C290.709 204.914 281.248 205.435 274 206.425M503 208C503.137 209.758 503.025 211.774 504.603 212.977C506.535 214.449 509.733 213.995 512 214C517.731 214.012 527.783 215.723 532.663 212.012C537.325 208.467 530.921 206.514 527.999 206.734C526.327 206.86 524.678 206.976 523 206.996L515 207C510.896 207.002 507.037 207.251 503 208M676 206.424C673.371 206.771 669.702 206.499 667.323 207.742C664.628 209.15 665.572 212.401 668.149 213.308C670.756 214.226 674.288 213.081 677 213.015C683.517 212.855 691.636 214.414 697.941 212.682C702.102 211.539 702.435 206.915 697.941 206.148C691.261 205.008 682.695 205.543 676 206.424M382.762 211.086C379.43 213.505 384.227 217.852 386.019 219.331C393.064 225.142 401.313 229.469 409 234.339C411.062 235.646 414.967 238.746 417.338 236.343C420.266 233.375 415.02 229.778 412.995 228.348C405.834 223.29 398.081 219.299 391 214.131C389.117 212.757 385.293 209.247 382.762 211.086M800 228C799.973 220.427 796.967 218.54 791 214.27C789.057 212.88 786.719 210.645 784.148 210.748C777.154 211.026 785.296 218.996 787.005 220.255C788.627 221.45 790.321 222.552 792 223.666C794.61 225.397 797.079 226.893 800 228M0 221C0.0271831 228.675 2.81635 230.198 9 234.201C10.9199 235.443 13.3555 237.61 15.8472 237.118C21.8408 235.934 14.8636 229.668 12.9954 228.348C11.3608 227.193 9.67435 226.1 8 225.004C5.38942 223.295 2.96363 221.944 0 221M154.333 225.161C150.805 227.045 154.472 231.256 156.059 232.999C160.536 237.914 165.895 242.599 171 246.852C172.721 248.286 175.297 250.321 177.638 248.914C180.93 246.934 177.516 242.802 175.89 241.039C171.551 236.333 166.225 231.842 161.285 227.765C159.537 226.321 156.796 223.846 154.333 225.161M240.996 225.047C234.982 227.86 227.249 237.626 223.438 243C221.604 245.587 220.954 251.651 226.019 249.824C228.364 248.979 230.28 246.71 231.985 244.995C236.369 240.588 242.188 235.33 245.377 230.005C247.575 226.335 245.005 223.172 240.996 225.047M554.333 225.161C550.805 227.045 554.472 231.256 556.059 232.999C560.536 237.914 565.895 242.599 571 246.852C572.721 248.286 575.297 250.321 577.638 248.914C580.449 247.223 578.219 243.773 576.767 242.039C572.468 236.906 566.453 232.031 561.286 227.765C559.538 226.321 556.796 223.846 554.333 225.161M640.996 225.047C634.982 227.86 627.249 237.626 623.438 243C621.604 245.587 620.954 251.651 626.019 249.824C628.364 248.979 630.28 246.71 631.985 244.995C636.369 240.588 642.188 235.33 645.377 230.005C647.575 226.335 645.005 223.172 640.996 225.047M0 247L0 275C1.26662 273.457 1.48925 272.952 2 271C7.57593 271.918 9.49526 268.961 7 264L15 264L15 258L10 258C9.13417 252.575 6.29488 252.04 2 255C1.965 251.808 1.94183 249.56 0 247M217 254C216.169 243.249 203.366 247.909 196 247.996C192.881 248.033 187.215 246.928 184.608 249.027C182.732 250.537 183.26 253.38 185.319 254.397C187.977 255.709 192.124 255.005 195 255C197.693 254.996 200.327 254.927 203 254.576C207.673 253.962 212.293 254 217 254M391 257C384.569 257.491 382.817 262.854 390 264C390.588 267.403 391.649 268.272 395 269C395.574 273.987 399.984 277.082 402 271C407.576 271.918 409.495 268.961 407 264L415 264L415 258L410 258C409.134 252.575 406.295 252.04 402 255C401.975 252.853 402.397 249.518 400.4 248.047C397.911 246.213 390.625 249.531 389.727 252.289C389.137 254.099 390.236 255.494 391 257M617 254C616.17 243.249 603.366 247.909 596 247.996C592.881 248.033 587.215 246.928 584.608 249.027C582.733 250.537 583.26 253.38 585.319 254.397C587.977 255.709 592.124 255.005 595 255C597.693 254.996 600.327 254.927 603 254.576C607.674 253.962 612.293 254 617 254M791 257C784.569 257.491 782.817 262.854 790 264C790.588 267.403 791.649 268.272 795 269C795.43 272.741 796.186 274.339 800 275L800 247C794.27 248.137 787.691 250.477 791 257M119.313 255.086C116.362 256.875 117.877 261.355 118.4 264C120.121 272.708 122.441 281.284 124.084 289.999C124.486 292.133 125.836 298.422 129.416 295.914C131.925 294.155 130.803 289.462 130.409 287C129.01 278.264 126.309 269.701 124.61 261.001C124.138 258.582 123.232 252.712 119.313 255.086M518.752 255.047C516.315 256.984 517.91 261.525 518.4 264C520.124 272.708 522.441 281.284 524.084 289.999C524.487 292.133 525.836 298.422 529.416 295.914C531.925 294.155 530.803 289.463 530.409 287C528.959 277.948 526.246 269.007 524.42 260.005C523.938 257.633 522.294 252.232 518.752 255.047M190.738 269.047C188.4 270.844 189.442 274.572 189.715 277C190.536 284.276 189.168 291.757 190.189 298.995C190.501 301.207 192.246 306.121 195.415 303.914C197.61 302.385 196.995 298.274 197 296C197.016 288.27 196.74 280.703 195.945 273.019C195.689 270.543 193.822 266.678 190.738 269.047M205.302 269.137C202.809 270.531 203.489 273.69 203.719 276C204.346 282.308 203.486 288.684 204.059 294.981C204.272 297.33 205.525 300.6 208.586 299.338C210.967 298.356 210.952 295.133 210.815 292.999C210.385 286.307 211.003 278.671 209.852 272.109C209.467 269.917 207.738 267.774 205.302 269.137M590.738 269.047C588.4 270.844 589.442 274.573 589.715 277C590.536 284.276 589.168 291.757 590.189 298.995C590.501 301.207 592.246 306.121 595.415 303.914C597.61 302.385 596.995 298.274 597 296C597.016 288.27 596.739 280.703 595.945 273.019C595.689 270.543 593.822 266.678 590.738 269.047M605.302 269.137C602.809 270.531 603.489 273.69 603.719 276C604.37 282.547 603.047 289.476 604.148 295.941C604.529 298.175 606.127 300.365 608.701 299.338C611.189 298.345 610.925 295.155 610.71 292.999C610.029 286.187 611.026 278.799 609.852 272.109C609.467 269.917 607.738 267.774 605.302 269.137M254 277C254.449 279.153 254.793 281.446 257.228 282.228C259.845 283.068 263.412 281.717 266 281.2C272.682 279.864 279.328 278.379 286 276.997C288.797 276.418 293.204 276.117 295.377 274.067C297.292 272.262 296.09 269.955 293.851 269.322C289.995 268.232 284.74 269.863 281 270.858C277.358 271.827 273.661 272.48 270 273.374C264.685 274.673 259.295 275.63 254 277M654 277C654.449 279.153 654.793 281.446 657.228 282.228C659.845 283.068 663.412 281.717 666 281.2C672.682 279.864 679.328 278.379 686 276.997C688.797 276.418 693.204 276.117 695.377 274.067C697.292 272.262 696.09 269.955 693.851 269.322C689.996 268.232 684.739 269.862 681 270.858C677.352 271.83 673.678 272.815 670 273.664C664.688 274.892 659.287 275.632 654 277M93 291C86.5595 286.717 84.3204 290.641 87 297C84.9661 298.768 84.9661 300.231 87 302C83.6867 308.119 84.7638 311.269 92 310C94.2441 313.472 96.564 312.565 98 309C99.888 310.181 102.443 312.464 104.853 312.084C108.172 311.561 107.25 307.994 107.156 305.715C106.963 301.04 107.245 298.837 102 298C105.771 294.397 107.083 288.388 100 290C97.6261 286.35 94.3458 286.947 93 291M493 291C486.559 286.717 484.32 290.641 487 297C484.966 298.769 484.966 300.232 487 302C483.687 308.119 484.764 311.269 492 310C494.244 313.472 496.564 312.565 498 309C499.888 310.181 502.443 312.464 504.853 312.084C508.172 311.561 507.25 307.994 507.156 305.715C506.963 301.04 507.245 298.837 502 298C505.771 294.397 507.083 288.388 500 290C497.626 286.35 494.346 286.947 493 291M302 294C297.229 291 290.974 288.686 293 297C288.784 299.742 290.514 303.251 295 304C293.872 305.167 292.261 306.372 292.035 308.135C291.384 313.215 302.94 312.245 305 310C310.628 313.032 314.447 312.013 313 305C316.401 302.775 315.707 300.232 312 299C313.172 297.014 315.183 294.576 315.137 292.147C315.07 288.608 311.579 289.198 310 291C305.747 289.242 302.858 288.863 302 294M702 294C697.228 291 690.974 288.686 693 297C688.784 299.742 690.514 303.251 695 304C693.872 305.167 692.262 306.372 692.036 308.135C691.384 313.215 702.94 312.245 705 310C710.629 313.032 714.447 312.013 713 305C716.401 302.775 715.707 300.232 712 299C713.172 297.014 715.183 294.577 715.137 292.147C715.07 288.608 711.579 289.198 710 291C705.747 289.242 702.858 288.863 702 294M4.58488 299.086C2.39028 300.615 3.00468 304.726 3 307C2.98539 314.098 3.21678 320.947 3.92593 327.999C4.16333 330.36 4.77483 336.306 8.72531 333.914C11.4889 332.24 10.5744 328.606 10.2847 326C9.47591 318.724 10.8322 311.242 9.81096 304.005C9.49885 301.793 7.7539 296.879 4.58488 299.086M404.585 299.086C402.39 300.615 403.005 304.726 403 307C402.985 314.098 403.217 320.947 403.926 327.999C404.163 330.36 404.775 336.306 408.725 333.914C411.489 332.24 410.574 328.605 410.285 326C409.476 318.724 410.832 311.242 409.811 304.005C409.499 301.793 407.754 296.879 404.585 299.086M396 335C396.681 330.874 396.114 327.139 396.015 323C395.942 320.003 396 316.998 396 314C396 311.433 396.603 307.802 395.397 305.434C394.425 303.527 391.504 302.7 390.066 304.619C388.51 306.696 389.858 310.635 389.961 313C390.262 319.947 386.829 333.503 396 335M790 303L790 315L790 323C790.001 325.939 789.391 330.104 791.178 332.663C792.422 334.443 794.728 334.592 795.937 332.663C797.42 330.295 796.152 326.594 796.039 324C795.734 316.955 799.344 304.076 790 303M198 326C193.072 325.189 191.189 327.072 192 332C185.413 332.214 181.611 338.331 190 339C190.874 344.467 193.676 344.609 198 342C198.025 344.111 197.59 347.51 199.6 348.928C204.824 352.614 211.256 344.718 210 340C216.259 339.001 216.259 333.999 210 333C209.066 329.873 208.127 328.934 205 328C204.601 322.879 200.004 319.966 198 326M598 326C593.072 325.189 591.189 327.072 592 332C585.554 332.21 581.868 337.702 590 339C590.851 344.103 593.847 344.145 598 342C598.025 344.111 597.59 347.51 599.6 348.928C604.824 352.614 611.256 344.718 610 340C616.259 339.001 616.259 333.999 610 333C609.066 329.873 608.127 328.934 605 328C604.601 322.879 600.004 319.966 598 326M332.662 324.047C329.949 326.324 334.573 330.486 336.019 332C340.755 336.958 345.688 341.771 351 346.111C352.723 347.519 355.809 350.579 358.253 348.914C361.137 346.95 358.452 343.38 356.851 341.718C351.675 336.346 345.727 330.924 339.999 326.144C338.28 324.709 334.958 322.121 332.662 324.047M732.662 324.047C729.949 326.324 734.573 330.486 736.019 332C740.755 336.958 745.688 341.771 751 346.111C752.723 347.519 755.809 350.579 758.253 348.914C761.115 346.965 758.498 343.432 756.866 341.804C751.509 336.46 745.786 331.015 740 326.148C738.286 324.707 734.956 322.122 732.662 324.047M60.0347 325.721C57.283 326.154 55.5429 328.805 53.8449 330.733C50.1855 334.887 45.5718 338.519 42.3333 342.999C40.742 345.201 39.6989 350.03 44.0694 349.418C46.6473 349.057 48.485 346.701 50.1698 344.956C54.126 340.857 59.3888 336.87 62.392 332.001C63.8979 329.559 64.1449 325.074 60.0347 325.721M460.115 325.851C457.576 326.426 455.57 329.025 453.87 330.808C450.095 334.767 445.534 338.571 442.333 342.999C440.736 345.208 439.705 350.027 444.069 349.534C446.695 349.237 448.496 346.75 450.17 344.981C454.102 340.823 459.375 336.891 462.392 332.001C463.804 329.711 464.213 324.923 460.115 325.851M72.4198 332.072C65.3198 335.726 57.889 345.733 53.0594 352C51.209 354.401 48.9667 361.262 54.8495 359.338C57.6972 358.407 59.9275 355.148 61.841 353.014C66.422 347.904 72.8347 342.852 76.3773 337.015C78.314 333.825 76.2796 330.085 72.4198 332.072M472.42 332.072C465.32 335.726 457.889 345.733 453.059 352C451.209 354.401 448.967 361.262 454.85 359.338C457.359 358.517 459.27 355.847 460.999 353.999C465.901 348.764 472.677 343.111 476.377 337.015C478.314 333.825 476.28 330.085 472.42 332.072M326.647 337.047C324.334 338.903 326.82 342.172 328.19 343.7C332.172 348.14 337.229 353.134 342 356.681C343.68 357.93 346.36 359.483 348.377 357.957C350.827 356.104 348.262 353.197 346.851 351.715C342.577 347.224 337.975 342.02 333 338.319C331.366 337.103 328.607 335.475 326.647 337.047M726.647 337.047C724.335 338.903 726.82 342.172 728.19 343.7C732.172 348.14 737.229 353.133 742 356.681C743.671 357.924 746.373 359.494 748.377 357.954C750.825 356.073 748.301 353.076 746.851 351.576C742.57 347.147 737.94 341.994 733 338.319C731.366 337.103 728.607 335.475 726.647 337.047M0 348L0 355C3.17083 355 18.9805 356.923 16.338 350.299C14.6796 346.141 3.60966 348 0 348M400 348.424C397.314 348.777 394.711 348.981 392 348.999C389.775 349.015 386.481 348.519 384.608 350.027C382.287 351.895 383.686 354.951 386.148 355.682C391.674 357.324 398.421 355.472 404 355.09C407.149 354.874 410.801 355.588 413.852 354.682C417.351 353.643 417.351 349.357 413.852 348.318C409.813 347.118 404.112 347.885 400 348.424M800 356L800 349C796.829 349 781.02 347.077 783.662 353.701C785.32 357.859 796.39 356 800 356M373.981 353.176C367.591 355.48 359.28 366.616 355.323 371.999C353.248 374.821 353.095 379.791 358.019 378.338C361.975 377.171 364.702 372.927 367.285 370C370.463 366.4 374.818 363.183 377.238 359.001C378.829 356.253 378.148 351.673 373.981 353.176M773.981 353.176C767.591 355.48 759.28 366.616 755.323 371.999C753.248 374.821 753.095 379.791 758.019 378.338C761.975 377.171 764.702 372.927 767.286 370C770.463 366.4 774.818 363.183 777.238 359.001C778.829 356.253 778.148 351.673 773.981 353.176M22.608 354.086C19.679 356.061 22.6315 360.23 24.1481 361.985C28.3527 366.852 34.0045 371.72 39 375.771C40.7233 377.168 43.3369 379.142 45.6628 377.863C48.6523 376.22 46.3055 372.755 44.8472 371.001C40.4018 365.654 34.3271 360.611 29 356.149C27.4212 354.826 24.7746 352.626 22.608 354.086M422.608 354.086C419.688 356.055 422.614 360.22 424.148 361.961C428.43 366.819 434.032 371.689 439 375.851C440.743 377.311 443.294 379.299 445.663 377.914C448.613 376.188 446.347 372.805 444.847 371.001C440.402 365.654 434.327 360.611 429 356.149C427.421 354.826 424.775 352.626 422.608 354.086M0 381L0 419C5.85489 417.057 4 409.129 4 404C6.28473 403.82 19.3384 403.461 15.9136 398.584C13.8333 395.622 6.15399 397 3 397C3.00057 391.86 5.85158 382.948 0 381M133 387C129.526 387.577 128.577 388.526 128 392C123.013 392.574 119.918 396.984 126 399C124.921 403.843 127.157 406.079 132 405C132.195 410.951 137.719 414.374 139 407C144.083 406.152 144.182 403.166 142 399C143.955 398.977 146.751 399.328 148.383 397.973C151.32 395.534 148.32 392.816 146 392C146.863 388.209 144.413 384.152 141 388C138.977 382.613 134.274 379.018 133 387M184.434 382.047C181.205 383.838 178.977 387.992 177.054 391C173.019 397.313 168.994 403.651 165.019 410C163.772 411.99 160.244 419.671 166.019 418.248C169.27 417.448 171.439 413.577 173.138 411C176.811 405.428 180.045 399.582 183.696 394C185.468 391.291 188.597 388.302 189.263 385.059C189.896 381.977 186.876 380.693 184.434 382.047M233.071 382.137C229.652 383.641 227.492 388.011 225.587 391C221.015 398.176 215.418 405.473 211.529 412.995C210.1 415.76 210.895 419.649 214.846 418.338C217.921 417.318 219.959 413.523 221.645 411C226.619 403.558 233.143 395.198 236.703 387.015C237.948 384.154 236.87 380.466 233.071 382.137M261 387C256.093 387.819 255.997 390.584 257 395L250 395C250.439 400.982 253.034 409.533 260 406C260.34 410.365 261.635 411.66 266 412C267.417 408.088 270.818 405.985 272 402C277.013 401.6 279.912 396.968 274 395C274.798 390.156 272.925 387.902 268 389C267.786 382.474 261.658 378.564 261 387M398 381C397.006 386.355 397 391.57 397 397C393.523 396.971 387.335 395.052 384.337 397.042C381.98 398.606 382.854 401.376 385.153 402.397C388.468 403.869 393.441 403 397 403C397 406.84 396.032 412.276 397.603 415.851C398.543 417.99 401.37 419.441 403.228 417.377C405.638 414.699 404 406.469 404 403C406.336 403 418.955 404.248 417.248 399.325C415.901 395.439 406.155 397 403 397C403.004 390.675 406.514 381.663 398 381M533 387C529.089 387.652 528.3 389.136 528 393C521.64 391.553 520.788 397.963 527 399C523.939 403.631 527.391 405.514 532 405C532.326 410.891 537.74 414.553 539 407C544.083 406.152 544.181 403.165 542 399C543.955 398.977 546.751 399.328 548.383 397.973C551.32 395.534 548.32 392.816 546 392C546.863 388.209 544.413 384.151 541 388C538.977 382.613 534.274 379.018 533 387M584.434 382.047C581.497 383.676 579.489 387.304 577.671 390C573.27 396.526 569.196 403.328 565.018 410C563.772 411.991 560.245 419.671 566.019 418.248C568.927 417.532 570.947 414.271 572.561 411.999C576.879 405.921 580.201 399.186 584.358 393C585.976 390.593 588.664 387.978 589.263 385.059C589.896 381.977 586.876 380.693 584.434 382.047M633.071 382.137C629.652 383.641 627.492 388.011 625.587 391C621.015 398.176 615.418 405.473 611.529 412.995C610.1 415.76 610.895 419.649 614.846 418.338C617.921 417.318 619.958 413.523 621.645 411C626.641 403.526 633.124 395.243 636.703 387.015C637.948 384.154 636.87 380.466 633.071 382.137M661 387C656.093 387.819 655.997 390.584 657 395C655.144 395.061 652.282 394.774 651.084 396.603C649.49 399.037 652.758 406.365 655.404 407.272C657.152 407.872 658.557 406.741 660 406C660.463 411.947 665.899 413.598 667 407C670.127 406.066 671.066 405.127 672 402C677.455 401.13 679.464 396.08 673 395C675.172 390.316 672.988 387.888 668 389C667.783 382.347 661.666 378.452 661 387M798 381C796.479 386.146 797 391.661 797 397C793.76 396.991 788.384 395.471 785.434 396.693C782.93 397.731 782.989 401.233 785.322 402.397C788.434 403.948 793.599 403 797 403C797.223 408.204 797.529 414.024 799 419C800.661 415.041 800 410.26 800 406L800 381L798 381M46.2986 384.086C43.9769 385.444 43.9853 388.657 44.044 391C44.2152 397.832 44.4388 405.169 45.0586 411.981C45.2811 414.425 46.5837 417.582 49.7014 416.338C52.4224 415.253 51.9831 411.339 51.9992 409C52.0477 401.968 51.6137 395.009 50.9421 388.019C50.7097 385.601 49.349 382.302 46.2986 384.086M355 417C355.555 412.612 356.237 408.44 355.715 404C355.318 400.631 355.006 397.4 355 394C354.996 391.38 355.595 387.745 354.397 385.319C353.184 382.863 349.816 382.863 348.603 385.319C345.79 391.015 348.494 400.959 348.91 407C349.086 409.548 348.365 413.221 350.023 415.397C351.226 416.975 353.242 416.863 355 417M446.299 383.801C443.61 384.924 444.006 388.643 444.002 391.001C443.988 397.759 444.325 405.27 445.109 411.981C445.382 414.321 446.699 417.58 449.726 416.338C452.42 415.233 451.983 411.332 451.999 409C452.047 401.99 452.029 393.957 450.852 387.059C450.462 384.775 448.87 382.727 446.299 383.801M749.599 384.047C747.617 385.525 748.015 388.85 748.001 391C747.956 397.893 748.434 405.119 749.059 411.981C749.271 414.31 750.603 417.717 753.586 415.914C755.858 414.54 755.935 411.333 755.981 409C756.112 402.269 755.981 393.683 754.852 387.059C754.435 384.613 752.178 382.124 749.599 384.047M88 389.424C82.6567 390.115 77.3782 389.902 72.0039 390.005C70.1554 390.04 67.4318 389.828 66.2377 391.599C64.6997 393.88 66.8242 396.13 69.0594 396.512C74.4423 397.432 81.4388 396.003 87 396C89.3037 395.999 92.438 396.481 94.5656 395.397C96.9231 394.195 97.1412 390.816 94.6782 389.604C92.6973 388.629 90.078 389.156 88 389.424M298 397L312 397C315.357 397 318.666 397.013 322 396.576C324.277 396.277 338.768 396.321 333.353 390.603C330.822 387.93 325.197 389.907 322 389.985C313.934 390.183 298.605 386.089 298 397M497 390C492.809 389.257 489.2 389.778 485 389.961C482.007 390.091 478.995 389.999 476 390C473.347 390.001 469.764 389.473 467.323 390.742C465.086 391.905 465.218 394.662 467.323 395.937C469.737 397.398 473.37 396.153 476 396.039C482.917 395.74 496.27 399.364 497 390M727.999 389.444C720.345 390.122 712.638 389.423 705.001 390.094C702.73 390.294 698.636 390.918 698.636 393.985C698.636 397.425 703.771 396.984 706 396.999C712.422 397.044 718.624 396.322 725 396.039C727.402 395.933 731.247 396.682 733.238 394.973C737.355 391.44 730.659 389.208 727.999 389.444M80 403.424C77.6513 403.733 75.3717 403.952 73.0008 403.997C71.0823 404.033 68.3471 403.667 66.7616 405.027C64.3242 407.118 66.5846 410.097 69.0594 410.593C71.8573 411.153 75.1537 410.084 78 410.015C84.1529 409.864 90.9446 410.895 96.9807 409.517C100.201 408.782 103.834 404.797 98.8511 403.318C93.5523 401.745 85.421 402.713 80 403.424M328.995 403.613C322.413 403.566 312.488 402.39 306.229 404.318C302.968 405.322 302.751 409.759 306.229 410.643C308.672 411.263 311.539 410.258 314 410.09C319.371 409.722 326.856 411.528 331.847 409.258C336.758 407.025 332.463 403.638 328.995 403.613M480 403.424C477.651 403.733 475.372 403.952 473.001 403.997C471.066 404.033 468.365 403.676 466.758 405.027C465.054 406.459 465.331 409.426 467.438 410.307C469.802 411.296 473.493 410.076 476 410.015C482.779 409.849 490.334 411.034 496.981 409.517C500.201 408.782 503.834 404.797 498.851 403.318C493.552 401.745 485.421 402.713 480 403.424M728.995 403.483C722.198 403.79 712.683 402.33 706.229 404.318C702.896 405.345 702.831 409.681 706.229 410.678C709.01 411.494 712.21 410.435 715 410.17C720.118 409.683 727.095 411.444 731.847 409.258C736.711 407.019 732.669 403.317 728.995 403.483M442.941 421.06C440.223 421.452 437.927 424.135 436.17 426.015C432.002 430.475 426.959 435.035 423.438 440C421.928 442.129 420.446 447.678 425.059 447.079C427.421 446.772 429.388 444.544 430.985 442.981C435.612 438.452 440.861 433.216 444.677 428C446.279 425.811 447.552 420.395 442.941 421.06M40.9961 422.047C34.9824 424.86 27.2493 434.626 23.4383 440C21.6039 442.587 20.9535 448.651 26.0193 446.824C31.3407 444.905 35.3869 437.984 39.0895 434C41.1808 431.75 43.7844 429.663 45.3773 427.005C47.5759 423.336 45.0047 420.172 40.9961 422.047M354.337 422.137C351.348 423.78 353.695 427.245 355.153 428.999C359.598 434.346 365.673 439.389 371 443.851C372.579 445.174 375.225 447.374 377.392 445.914C380.321 443.939 377.369 439.77 375.852 438.015C371.647 433.148 365.995 428.28 361 424.229C359.277 422.832 356.663 420.858 354.337 422.137M754.337 422.137C751.348 423.78 753.695 427.245 755.153 428.999C759.598 434.346 765.673 439.389 771 443.851C772.579 445.174 775.225 447.374 777.392 445.914C780.312 443.945 777.386 439.78 775.852 438.039C771.602 433.218 765.993 428.279 761 424.229C759.277 422.832 756.663 420.858 754.337 422.137M52.3225 441.256C49.4566 442.497 50.8904 445.853 52.2832 447.561C56.1146 452.259 61.4429 457.352 66.1698 461.137C67.881 462.508 70.3558 464.238 72.6775 463.338C75.5881 462.209 74.0476 458.853 72.6775 457.169C68.9082 452.536 63.4905 448.069 59 444.11C57.3437 442.649 54.7753 440.195 52.3225 441.256M344.281 441.047C340.856 442.86 338.182 446.979 335.665 449.83C332.036 453.942 327.58 457.597 324.323 461.996C322.719 464.161 321.536 469.094 326.059 468.168C328.851 467.597 331.07 464.888 333 462.995C338.205 457.89 344.723 452.392 348.392 446.005C350.32 442.647 348.265 438.938 344.281 441.047M452.323 441.256C449.442 442.503 450.896 445.883 452.323 447.576C456.235 452.217 461.424 457.336 466.17 461.137C467.881 462.508 470.356 464.238 472.677 463.338C475.588 462.209 474.048 458.853 472.677 457.169C468.908 452.536 463.49 448.069 459 444.11C457.344 442.649 454.775 440.195 452.323 441.256M744.281 441.047C740.856 442.86 738.182 446.979 735.665 449.83C732.057 453.918 727.489 457.564 724.337 461.999C722.507 464.574 722.566 469.431 727.019 467.824C729.771 466.831 731.989 463.996 734 461.999C738.87 457.163 744.938 452.018 748.392 446.005C750.32 442.647 748.265 438.938 744.281 441.047M0 444L0 451C6.47229 451 16.3375 453.503 17 445C11.3212 443.946 5.75715 444 0 444M417 445C412.661 444.194 408.42 443.846 404 444.039C400.978 444.171 398.022 444.828 395 444.961C392.065 445.089 388.035 444.262 385.319 445.603C382.863 446.816 382.863 450.184 385.319 451.397C391.167 454.285 400.778 451.081 407 451.004C409.519 450.973 413.246 451.616 415.397 449.977C416.975 448.774 416.863 446.758 417 445M800 452L800 445C796.829 445 781.02 443.077 783.662 449.701C785.32 453.859 796.39 452 800 452M41.7469 451.086C38.8852 453.035 41.5024 456.568 43.1343 458.196C48.5403 463.589 54.3188 468.837 60 473.938C61.8341 475.584 64.8728 478.371 67.3773 476.214C70.1372 473.837 66.5871 470.593 64.9414 468.91C59.8376 463.693 54.6564 458.511 49 453.889C47.2772 452.481 44.191 449.421 41.7469 451.086M195 454C190.065 452.877 188.784 455.434 190 460C183.741 460.999 183.741 466.001 190 467C190.934 470.127 191.873 471.066 195 472C195.574 476.987 199.984 480.082 202 474C206.795 474.799 208.902 472.84 208 468C214.33 467.652 218.168 462.303 210 461C209.181 456.093 206.416 455.997 202 457C201.832 451.893 197.296 447.086 195 454M353.594 451.043C351.257 452.408 349.417 455.345 347.56 457.285C344.299 460.692 339.885 463.909 337.518 468.039C335.968 470.745 336.342 475.889 340.694 474.003C343.251 472.895 345.216 469.909 347.093 467.961C350.672 464.248 355.72 460.587 358.199 456.005C360.016 452.647 357.274 448.893 353.594 451.043M441.747 451.086C438.888 453.033 441.498 456.571 443.134 458.195C448.539 463.559 454.315 468.873 460.001 473.941C461.84 475.581 464.871 478.372 467.377 476.214C470.137 473.837 466.587 470.593 464.941 468.91C459.838 463.693 454.656 458.511 449 453.889C447.277 452.481 444.191 449.421 441.747 451.086M590 460C583.741 460.999 583.741 466.001 590 467C590.934 470.127 591.873 471.066 595 472C595.574 476.987 599.984 480.082 602 474C606.877 474.813 608.621 472.84 608 468C614.459 467.645 618.435 461.673 610 461C609.181 456.093 606.416 455.997 602 457C601.938 455.098 602.209 452.336 600.4 451.07C597.894 449.317 590.727 452.662 589.693 455.289C589.085 456.832 589.685 458.484 590 460M753.594 451.043C751.257 452.408 749.417 455.345 747.56 457.285C744.299 460.692 739.885 463.909 737.519 468.039C735.968 470.745 736.342 475.889 740.694 474.003C743.251 472.895 745.216 469.909 747.093 467.961C750.672 464.248 755.72 460.587 758.199 456.005C760.016 452.647 757.274 448.893 753.594 451.043M5.30247 466.137C2.80885 467.531 3.48945 470.69 3.71914 473C4.36996 479.546 3.04522 486.477 4.14815 492.941C4.53531 495.211 6.13163 497.289 8.69753 496.199C11.2279 495.124 10.4955 492.129 10.2809 489.996C9.61396 483.368 10.5561 476.66 9.94136 470.044C9.72165 467.679 8.27314 464.475 5.30247 466.137M391.299 466.086C388.504 467.733 389.426 471.396 389.715 474C390.49 480.965 389.377 488.046 390.174 494.999C390.426 497.19 391.868 503.398 395.416 500.914C397.608 499.378 396.995 495.278 397 493C397.015 485.922 396.972 479.031 396.165 472.001C395.884 469.552 395.388 463.678 391.299 466.086M405.302 466.137C402.809 467.531 403.489 470.69 403.719 473C404.37 479.546 403.045 486.477 404.148 492.941C404.538 495.225 406.13 497.274 408.701 496.199C411.113 495.192 410.993 492.16 410.826 489.996C410.304 483.261 411.01 475.713 409.852 469.109C409.467 466.917 407.738 464.774 405.302 466.137M791.299 466.086C788.504 467.733 789.426 471.396 789.715 474C790.49 480.965 789.377 488.046 790.174 494.999C790.426 497.19 791.868 503.398 795.416 500.914C797.608 499.378 796.995 495.278 797 493C797.015 485.922 796.972 479.031 796.165 472.001C795.884 469.552 795.388 463.678 791.299 466.086M88 488C84.0723 490.161 83.5774 493.215 88 495C86.7583 496.985 83.9261 500.131 85.1752 502.664C86.2644 504.872 89.0636 504.178 91.0008 504.13C95.2014 504.028 97.5969 504.425 99 500C104.177 503.13 108.469 503.062 107 496C112.4 494.843 109.171 490.304 105 490C105.528 489.307 106.498 488.235 106.959 487.421C111.295 479.766 99.96 482.209 96 482.181C93.5717 482.163 89.7581 480.753 87.608 482.228C85.2518 483.845 86.8514 486.343 88 488M297 495C294.071 500.331 293.232 505.616 301 504C302.003 508.681 306.257 506.91 307 503C316.322 506.843 314.546 499.766 314.769 493C314.847 490.653 316.361 486.68 314.921 484.606C313.497 482.558 310.879 483.5 309 484C306.54 480.531 303.333 480.995 302 485C299.957 483.631 297.015 480.842 294.319 481.737C292.019 482.5 292.56 485.159 292.648 487.005C292.853 491.294 292.133 494.152 297 495M488 488C484.072 490.161 483.577 493.215 488 495C486.758 496.985 483.926 500.131 485.175 502.664C486.264 504.872 489.064 504.178 491.001 504.13C495.201 504.028 497.597 504.425 499 500C504.127 503.368 508.454 502.988 507 496C512.4 494.843 509.171 490.304 505 490C505.528 489.307 506.498 488.235 506.959 487.421C511.295 479.766 499.96 482.209 496 482.181C493.572 482.163 489.758 480.753 487.608 482.228C485.252 483.845 486.851 486.343 488 488M697 495C694.071 500.331 693.232 505.616 701 504C702.003 508.681 706.257 506.91 707 503C716.322 506.843 714.546 499.766 714.769 493C714.847 490.653 716.361 486.68 714.921 484.606C713.497 482.558 710.879 483.5 709 484C706.54 480.531 703.333 480.995 702 485C699.967 483.796 696.88 481.155 694.323 481.831C691.991 482.447 692.564 485.237 692.648 487.005C692.853 491.294 692.133 494.152 697 495M205 538C207.265 537.528 209.359 537.145 210.397 534.772C211.578 532.071 210.613 528.774 210.285 526C209.549 519.756 212.431 508.67 208.822 503.323C207.481 501.336 204.769 500.977 203.603 503.323C202.168 506.205 203 510.871 203 514C203 517.327 202.894 520.675 203.039 524C203.242 528.637 203.923 533.491 205 538M604.588 502.086C602.387 503.601 603.005 507.734 603 510C602.985 517.07 602.951 523.981 603.846 530.999C604.147 533.367 604.789 539.281 608.726 536.914C611.043 535.52 611.005 532.349 610.826 530C610.245 522.411 610.75 514.541 609.891 507.005C609.629 504.704 607.813 499.866 604.588 502.086M270.585 504.086C268.08 505.832 269.177 510.556 269.616 513C271.183 521.735 273.872 530.228 275.414 538.999C275.851 541.485 276.762 547.233 280.701 544.914C284.006 542.967 282.406 537.927 281.789 535C279.956 526.294 277.516 517.737 275.851 509.005C275.438 506.838 273.791 501.852 270.585 504.086M677 546C679.208 545.54 681.426 545.167 682.359 542.772C683.38 540.148 682.148 536.611 681.576 534C680.18 527.634 678.583 521.321 677.004 515C676.24 511.943 676.465 506.986 674.147 504.623C671.844 502.275 669.527 504.52 669.163 507.059C668.609 510.919 670.005 515.314 671.011 519C672.007 522.651 673.005 526.295 673.789 530C674.918 535.332 675.633 540.717 677 546M190.603 507.072C188.504 508.6 189.48 511.888 189.715 514C190.412 520.253 189.14 526.79 190.148 532.981C190.494 535.107 192.005 538.16 194.698 536.824C197.23 535.567 196.501 532.215 196.281 530C195.632 523.479 196.979 516.543 195.852 510.109C195.44 507.759 193.11 505.245 190.603 507.072M590.603 507.072C588.504 508.6 589.48 511.888 589.715 514C590.412 520.253 589.14 526.79 590.148 532.981C590.494 535.107 592.005 538.16 594.698 536.824C597.23 535.567 596.501 532.215 596.281 530C595.633 523.479 596.979 516.543 595.852 510.109C595.44 507.759 593.11 505.245 590.603 507.072M140.981 517.534C130.201 517.809 118.411 521.777 108.019 524.468C104.93 525.268 101.055 529.238 106.149 530.678C114.144 532.938 126.043 526.863 134 525.424C137.085 524.867 141.878 524.935 144.392 522.839C147.718 520.068 143.839 517.461 140.981 517.534M540.981 517.534C530.448 517.803 518.122 521.349 508.019 524.255C504.956 525.136 501.039 529.233 506.149 530.678C514.249 532.968 526.938 526.803 535 525.2C537.758 524.651 542.137 524.662 544.392 522.829C547.761 520.09 543.8 517.462 540.981 517.534M0 519L0 547C2.62647 546.161 3.16129 545.626 4 543C10.1434 544.278 11.2152 541.359 9 536C15.7673 537.508 16.8453 531.093 10 530C9.41249 526.597 8.35057 525.728 5 525C4.69979 521.136 3.91082 519.652 0 519M398 523C393.075 521.902 391.202 524.156 392 529C385.795 529.343 381.966 534.716 390 536C390.848 541.083 393.834 541.182 398 539C398.059 544.017 398.589 546.578 404 547L404 543C410.143 544.278 411.215 541.359 409 536C415.767 537.508 416.845 531.093 410 530C409.412 526.597 408.351 525.728 405 525C404.601 519.879 400.004 516.966 398 523M799 519L798 523C793.075 521.902 791.203 524.156 792 529C785.795 529.343 781.966 534.716 790 536C790.848 541.083 793.834 541.182 798 539C798.021 541.85 798.19 544.271 799 547C801.604 540.794 801.604 525.206 799 519M200 551.424C197.314 551.777 194.711 551.981 192 551.999C189.639 552.016 186.414 551.572 184.362 553.024C181.624 554.962 183.618 557.795 186.11 558.566C190.239 559.844 194.841 558.374 199 558.089C203.686 557.769 209.328 559.026 213.852 557.682C217.35 556.643 217.351 552.357 213.852 551.318C209.813 550.118 204.112 550.885 200 551.424M600 551.424C597.314 551.777 594.711 551.981 592 551.999C589.639 552.016 586.414 551.572 584.362 553.024C581.624 554.962 583.618 557.795 586.11 558.566C590.239 559.844 594.841 558.374 599 558.089C603.686 557.769 609.328 559.026 613.852 557.682C617.35 556.643 617.35 552.357 613.852 551.318C609.813 550.118 604.112 550.885 600 551.424M173.981 556.176C167.419 558.542 159 569.969 155.037 575.576C153.479 577.78 152.833 582.628 157.059 582.079C159.421 581.772 161.387 579.545 162.985 577.981C167.652 573.413 173.972 567.646 177.238 562.001C178.829 559.253 178.148 554.673 173.981 556.176M573.981 556.176C567.42 558.542 559 569.969 555.037 575.576C553.48 577.78 552.833 582.628 557.059 582.079C559.414 581.773 561.383 579.556 562.961 577.981C567.589 573.36 573.971 567.646 577.238 562.001C578.829 559.253 578.148 554.673 573.981 556.176M222.333 557.086C218.895 559.14 222.367 563.151 224.059 564.996C228.503 569.84 233.897 574.631 239 578.771C240.821 580.248 243.999 582.546 246.377 580.777C249.247 578.642 245.453 574.631 243.941 573.015C239.484 568.249 234.179 563.957 229.285 559.634C227.5 558.057 224.91 555.548 222.333 557.086M622.333 557.086C618.895 559.14 622.367 563.151 624.059 564.996C628.501 569.838 633.896 574.638 639 578.771C640.725 580.167 643.336 582.143 645.663 580.863C649.163 578.939 645.576 574.774 643.941 573.015C639.503 568.239 634.174 563.953 629.286 559.634C627.501 558.057 624.91 555.548 622.333 557.086M382.762 563.083C379.041 565.825 385.065 570.271 387.005 571.655C394.13 576.74 401.794 580.941 409.001 585.908C411.115 587.365 414.637 590.592 417.392 588.767C421.115 586.3 415.832 582.067 413.981 580.63C406.819 575.069 398.589 570.646 391 565.674C389.049 564.396 385.21 561.278 382.762 563.083M800 579L800 571C795.881 569.29 787.895 561.24 783.438 562.737C779.983 563.897 782.583 567.998 784.152 569.482C788.365 573.469 794.501 577.248 800 579M0 572C0.0270636 579.888 2.75229 581.602 9.00077 585.908C11.0729 587.336 13.9086 589.987 16.6813 589.114C18.7599 588.46 18.8927 586.078 17.9529 584.448C16.1598 581.339 11.9354 578.982 9 577.089C6.10539 575.224 3.04419 573.603 0 572M61 590C55.5335 590.874 55.3914 593.676 58 598C56.045 598.023 53.249 597.672 51.6173 599.027C48.6797 601.466 51.6797 604.184 54 605C52.8769 609.935 55.4344 611.216 60 610C60.9989 616.259 66.0011 616.259 67 610C70.403 609.412 71.272 608.351 72 605C77.121 604.601 80.0338 600.004 74 598C74.8131 593.123 72.8398 591.379 68 592C67.7834 585.349 61.9778 581.506 61 590M197 600C193.866 599.991 187.174 598.182 184.608 600.066C182.544 601.582 183.484 604.484 185.319 605.682C188.687 607.881 194.175 607 198 607L198 622C206.045 621.373 204 613.236 204 607C207.305 606.998 211.769 607.593 214.677 605.683C216.296 604.62 217.093 602.432 215.377 601.023C212.672 598.802 206.297 600 203 600C203.002 596.53 205.137 588.357 202.958 585.623C201.243 583.47 198.474 585.159 197.603 587.149C196.036 590.731 197 596.156 197 600M333 590C329.597 590.588 328.728 591.649 328 595C322.879 595.399 319.966 599.996 326 602C325.163 606.978 327.34 607.847 332 608C332.348 614.33 337.697 618.168 339 610C343.907 609.181 344.003 606.416 343 602C344.902 601.938 347.664 602.209 348.93 600.4C350.683 597.894 347.337 590.727 344.711 589.693C343.168 589.085 341.516 589.685 340 590C339.001 583.741 333.999 583.741 333 590M461 590C455.533 590.874 455.391 593.676 458 598C456.045 598.023 453.249 597.672 451.617 599.027C448.68 601.466 451.68 604.184 454 605C452.826 610.158 455.663 611.2 460 609C460.491 615.431 465.854 617.183 467 610C470.403 609.412 471.272 608.351 472 605C477.121 604.601 480.034 600.004 474 598C474.813 593.123 472.84 591.379 468 592C467.783 585.349 461.978 581.506 461 590M597 600C593.866 599.991 587.174 598.182 584.608 600.066C582.544 601.582 583.484 604.484 585.319 605.682C588.687 607.881 594.175 607 598 607L598 622C606.045 621.373 604 613.236 604 607C607.305 606.998 611.769 607.593 614.677 605.683C616.296 604.62 617.093 602.432 615.377 601.023C612.672 598.802 606.297 600 603 600C603.002 596.53 605.137 588.357 602.958 585.623C601.243 583.47 598.474 585.159 597.603 587.149C596.036 590.731 597 596.156 597 600M733 590C729.597 590.588 728.728 591.649 728 595C722.879 595.399 719.966 599.996 726 602C725.187 606.877 727.16 608.621 732 608C732.359 614.535 738.018 618.531 739 610C743.907 609.181 744.003 606.416 743 602C744.933 601.937 747.642 602.196 748.954 600.4C752.766 595.184 744.724 588.742 740 590C739.001 583.741 733.999 583.741 733 590M149.599 587.047C147.415 588.675 148.001 592.648 148 595C147.997 601.855 148.425 609.131 149.059 615.956C149.264 618.163 150.635 621.561 153.505 619.863C155.975 618.403 155.921 614.47 155.985 612C156.166 605.117 156.006 596.832 154.852 590.059C154.435 587.613 152.178 585.124 149.599 587.047M245 586C244.194 590.339 243.846 594.58 244.039 599C244.171 602.022 244.828 604.978 244.961 608C245.095 611.06 244.327 614.974 245.603 617.847C246.645 620.192 249.363 620.968 250.973 618.663C254.574 613.507 251.157 602.794 251.015 597C250.949 594.338 251.596 590.793 250.398 588.318C249.335 586.12 247.103 586.164 245 586M549.599 587.047C547.415 588.675 548.001 592.648 548 595C547.997 601.855 548.425 609.131 549.059 615.956C549.264 618.163 550.635 621.561 553.505 619.863C555.975 618.403 555.921 614.47 555.985 612C556.166 605.117 556.006 596.832 554.852 590.059C554.435 587.613 552.178 585.124 549.599 587.047M645 586C644.194 590.339 643.846 594.58 644.039 599C644.172 602.022 644.828 604.978 644.961 608C645.095 611.06 644.327 614.974 645.603 617.847C646.645 620.192 649.363 620.968 650.973 618.663C654.574 613.507 651.157 602.794 651.015 597C650.949 594.338 651.596 590.793 650.398 588.318C649.334 586.12 647.103 586.164 645 586M128.995 592.468C121.318 593.006 113.701 592.896 106 593.004C103.668 593.036 99.7617 592.747 98.662 595.414C96.9796 599.496 102.471 599.948 105.001 599.995C112.785 600.143 125.56 601.887 132.681 598.258C137.693 595.704 132.306 592.236 128.995 592.468M289 592.44C282.985 593.042 277.022 592.66 271.005 593.044C269.204 593.159 266.41 593.305 265.752 595.414C264.909 598.112 267.878 599.483 270.019 599.566C275.564 599.782 281.398 599.003 287 599C289.296 598.999 292.443 599.485 294.562 598.397C300.428 595.385 291.93 592.146 289 592.44M528.995 592.468C521.318 593.006 513.701 592.896 506 593.004C503.668 593.036 499.762 592.747 498.662 595.414C496.98 599.496 502.471 599.948 505.001 599.995C512.785 600.143 525.56 601.887 532.681 598.258C537.693 595.704 532.306 592.236 528.995 592.468M689 592.44C682.985 593.042 677.022 592.66 671.005 593.044C669.204 593.159 666.41 593.305 665.752 595.414C664.909 598.112 667.878 599.483 670.019 599.566C675.564 599.782 681.398 599.003 687 599C689.297 598.999 692.443 599.485 694.562 598.397C700.428 595.385 691.93 592.146 689 592.44M103 608C103.203 609.761 103.185 611.765 104.742 612.977C106.632 614.448 109.771 613.995 112 614C117.322 614.011 129.425 615.993 133.338 611.416C138.285 605.629 125.04 606.972 123 606.996L115 607C110.896 607.002 107.037 607.251 103 608M274 606.425C271.81 606.724 268.395 606.677 266.623 608.177C264.136 610.284 266.731 613.094 269.059 613.667C271.933 614.376 275.116 613.287 278 613.089C284.157 612.668 293.141 614.896 298.851 612.397C302.617 610.748 301.678 606.786 297.941 606.148C290.709 604.914 281.248 605.435 274 606.425M503 608C503.137 609.758 503.025 611.774 504.603 612.977C506.535 614.449 509.733 613.995 512 614C517.731 614.012 527.783 615.723 532.663 612.012C537.325 608.467 530.921 606.514 527.999 606.734C526.327 606.86 524.679 606.976 523 606.996L515 607C510.896 607.002 507.037 607.251 503 608M676 606.424C673.371 606.771 669.702 606.499 667.323 607.742C664.628 609.15 665.572 612.401 668.149 613.308C670.756 614.226 674.288 613.081 677 613.015C683.517 612.855 691.637 614.414 697.941 612.682C702.102 611.539 702.435 606.915 697.941 606.148C691.261 605.008 682.695 605.543 676 606.424M383.319 610.887C378.8 612.328 383.228 617.252 385.059 618.705C392.229 624.398 400.303 628.79 408 633.691C410.199 635.092 413.838 638.315 416.663 636.839C420.657 634.751 415.869 630.455 413.981 629.04C406.975 623.791 399.033 620.064 392 614.873C389.78 613.235 386.391 609.906 383.319 610.887M800 628C799.973 620.422 796.965 618.546 791 614.27C789.109 612.914 786.73 610.594 784.229 610.632C777.683 610.731 785.465 618.907 787.005 620.101C788.618 621.352 790.309 622.512 792 623.655C794.595 625.41 797.08 626.893 800 628M0 621C0.0271831 628.675 2.81638 630.198 9 634.201C10.9199 635.443 13.3555 637.61 15.8472 637.118C21.8407 635.934 14.8636 629.668 12.9954 628.348C11.3608 627.193 9.67441 626.1 8 625.004C5.3894 623.295 2.96363 621.944 0 621M154.333 625.161C150.805 627.045 154.472 631.256 156.059 632.999C160.536 637.914 165.895 642.599 171 646.852C172.721 648.286 175.297 650.321 177.638 648.914C180.449 647.223 178.219 643.773 176.767 642.039C172.468 636.906 166.453 632.031 161.285 627.765C159.537 626.321 156.796 623.846 154.333 625.161M240.996 625.047C234.982 627.86 227.249 637.626 223.438 643C221.604 645.587 220.953 651.651 226.019 649.824C228.364 648.979 230.28 646.71 231.985 644.995C236.369 640.588 242.188 635.33 245.377 630.005C247.575 626.336 245.005 623.172 240.996 625.047M554.333 625.161C550.805 627.045 554.472 631.256 556.059 632.999C560.536 637.914 565.895 642.599 571 646.852C572.721 648.286 575.297 650.321 577.638 648.914C580.93 646.934 577.516 642.802 575.89 641.039C571.551 636.333 566.225 631.842 561.286 627.765C559.537 626.321 556.796 623.846 554.333 625.161M640.996 625.047C634.982 627.86 627.249 637.626 623.438 643C621.604 645.587 620.953 651.651 626.019 649.824C628.364 648.979 630.28 646.71 631.985 644.995C636.369 640.588 642.188 635.33 645.377 630.005C647.575 626.336 645.005 623.172 640.996 625.047M0 647L0 675C1.26667 673.457 1.48925 672.952 2 671C7.57595 671.918 9.49522 668.961 7 664L15 664L15 658L10 658C9.13416 652.575 6.29486 652.04 2 655C1.965 651.808 1.94182 649.56 0 647M217 654C216.169 643.249 203.366 647.909 196 647.996C192.881 648.033 187.215 646.928 184.608 649.027C182.732 650.537 183.26 653.38 185.319 654.397C187.977 655.709 192.123 655.005 195 655C197.693 654.996 200.327 654.927 203 654.576C207.673 653.962 212.293 654 217 654M391 657C384.569 657.491 382.817 662.854 390 664C390.587 667.403 391.649 668.272 395 669C395.574 673.987 399.984 677.082 402 671C407.576 671.918 409.495 668.961 407 664L415 664L415 658L410 658C409.134 652.575 406.295 652.04 402 655C401.975 652.853 402.397 649.517 400.4 648.047C397.911 646.213 390.625 649.532 389.727 652.289C389.137 654.099 390.236 655.494 391 657M603 647.424C598.815 647.974 586.711 646.027 584.047 649.599C581.297 653.286 586.362 654.864 589.005 654.981C595.104 655.25 600.955 654.504 607 654.089C609.486 653.919 612.363 654.431 614.767 653.682C618.527 652.51 616.656 648.891 613.938 647.742C610.685 646.368 606.387 646.98 603 647.424M791 657C784.569 657.491 782.817 662.854 790 664C790.588 667.403 791.649 668.272 795 669C795.43 672.741 796.186 674.339 800 675L800 647C794.27 648.137 787.691 650.477 791 657M119.313 655.086C116.482 656.801 117.722 661.378 118.145 664C119.559 672.754 122.44 681.278 124.084 689.999C124.487 692.133 125.836 698.422 129.416 695.914C131.925 694.155 130.803 689.463 130.409 687C129.011 678.275 126.336 669.726 124.749 661.001C124.301 658.538 123.185 652.742 119.313 655.086M519.313 655.086C516.504 656.789 517.711 661.373 518.065 664C519.243 672.74 522.446 681.309 524.084 689.999C524.487 692.133 525.836 698.422 529.416 695.914C531.925 694.155 530.803 689.463 530.409 687C529.012 678.28 526.308 669.695 524.61 661.001C524.138 658.582 523.232 652.712 519.313 655.086M190.738 669.047C188.4 670.844 189.442 674.573 189.715 677C190.536 684.276 189.168 691.757 190.189 698.995C190.501 701.207 192.246 706.121 195.415 703.914C197.61 702.385 196.995 698.274 197 696C197.016 688.27 196.74 680.703 195.945 673.019C195.689 670.543 193.822 666.677 190.738 669.047M205.302 669.137C202.809 670.531 203.489 673.69 203.719 676C204.37 682.547 203.047 689.476 204.148 695.941C204.529 698.175 206.127 700.365 208.701 699.338C211.145 698.363 210.991 695.148 210.826 692.999C210.308 686.265 211.01 678.712 209.852 672.109C209.467 669.918 207.738 667.774 205.302 669.137M590.738 669.047C588.4 670.844 589.442 674.573 589.715 677C590.536 684.276 589.168 691.757 590.189 698.995C590.501 701.207 592.246 706.121 595.415 703.914C597.61 702.385 596.995 698.274 597 696C597.016 688.089 597.223 679.874 595.853 672.059C595.44 669.703 593.275 667.098 590.738 669.047M605.302 669.137C602.809 670.531 603.489 673.69 603.719 676C604.37 682.547 603.047 689.476 604.148 695.941C604.529 698.175 606.127 700.365 608.701 699.338C611.145 698.363 610.991 695.148 610.826 692.999C610.308 686.265 611.01 678.712 609.852 672.109C609.467 669.917 607.738 667.774 605.302 669.137M254 677C254.449 679.153 254.793 681.446 257.228 682.228C259.845 683.068 263.412 681.717 266 681.2C272.682 679.864 279.328 678.379 286 676.997C288.797 676.418 293.204 676.117 295.377 674.067C297.292 672.262 296.09 669.955 293.851 669.322C289.995 668.232 284.74 669.863 281 670.858C277.358 671.827 273.661 672.48 270 673.374C264.685 674.673 259.295 675.63 254 677M654 677C654.449 679.153 654.793 681.446 657.228 682.228C659.845 683.068 663.412 681.717 666 681.2C672.682 679.864 679.328 678.379 686 676.997C688.797 676.418 693.204 676.117 695.377 674.067C697.292 672.262 696.09 669.955 693.851 669.322C689.995 668.232 684.74 669.863 681 670.858C677.358 671.827 673.661 672.48 670 673.374C664.685 674.673 659.295 675.63 654 677M93 691C91.3964 689.934 89.3784 688.146 87.2778 688.886C83.7723 690.121 84.9453 700.114 87 702C83.6867 708.119 84.7637 711.269 92 710C94.2117 713.284 96.2737 712.111 98 709C99.888 710.181 102.443 712.464 104.853 712.084C108.172 711.561 107.25 707.994 107.156 705.714C106.963 701.04 107.245 698.837 102 698C103.659 696.415 105.692 694.723 105.455 692.131C104.957 686.671 94.6907 685.911 93 691M493 691C491.395 689.933 489.379 688.147 487.278 688.886C483.494 690.216 484.741 699.997 487 702C483.687 708.119 484.764 711.269 492 710C494.212 713.284 496.274 712.111 498 709C499.888 710.181 502.443 712.464 504.853 712.084C508.172 711.561 507.25 707.994 507.156 705.714C506.963 701.04 507.245 698.837 502 698C503.659 696.415 505.692 694.722 505.455 692.131C504.957 686.671 494.691 685.911 493 691M302 694C297.228 691 290.974 688.686 293 697C288.784 699.742 290.514 703.251 295 704C293.872 705.167 292.261 706.372 292.035 708.135C291.384 713.215 302.94 712.245 305 710C310.628 713.032 314.447 712.013 313 705C316.401 702.775 315.707 700.232 312 699C313.172 697.014 315.183 694.576 315.137 692.147C315.07 688.608 311.579 689.198 310 691C305.747 689.242 302.858 688.863 302 694M702 694C697.229 691 690.974 688.686 693 697C688.784 699.742 690.514 703.251 695 704C693.872 705.167 692.262 706.372 692.036 708.135C691.384 713.215 702.94 712.245 705 710C710.793 713.121 714.069 711.954 713 705C716.401 702.775 715.707 700.232 712 699C713.172 697.014 715.183 694.577 715.137 692.147C715.07 688.608 711.579 689.198 710 691C705.747 689.242 702.858 688.863 702 694M4.58488 699.086C2.39028 700.615 3.00468 704.726 3 707C2.98539 714.098 3.21679 720.947 3.92593 727.999C4.16333 730.36 4.77482 736.306 8.72531 733.914C11.4889 732.24 10.5744 728.605 10.2847 726C9.47591 718.724 10.8322 711.242 9.81096 704.005C9.49884 701.793 7.7539 696.879 4.58488 699.086M404.585 699.086C402.39 700.615 403.005 704.726 403 707C402.985 714.415 403.48 721.619 404.04 728.995C404.22 731.37 405.262 736.011 408.725 733.914C411.489 732.24 410.574 728.605 410.285 726C409.476 718.724 410.832 711.242 409.811 704.005C409.499 701.793 407.754 696.879 404.585 699.086M390 703L390 715L390 723C390.001 725.939 389.391 730.104 391.178 732.663C392.422 734.443 394.729 734.592 395.937 732.663C397.42 730.295 396.152 726.594 396.039 724C395.734 716.955 399.344 704.076 390 703M790 703L790 715L790 723C790.001 725.78 789.546 729.247 790.742 731.847C791.775 734.092 794.406 735.042 795.961 732.663C797.673 730.044 796.166 725.885 796.039 723C795.736 716.062 799.188 704.058 790 703M198 726C193.072 725.189 191.189 727.072 192 732C185.554 732.21 181.868 737.702 190 739C190.874 744.467 193.676 744.609 198 742C198.025 744.147 197.603 747.482 199.6 748.953C204.802 752.785 211.255 744.715 210 740C216.259 739.001 216.259 733.999 210 733C209.066 729.873 208.127 728.934 205 728C204.601 722.879 200.004 719.966 198 726M598 726C593.072 725.189 591.189 727.072 592 732C585.413 732.215 581.612 738.331 590 739C590.851 744.103 593.847 744.145 598 742C598.025 744.147 597.603 747.482 599.6 748.953C604.802 752.785 611.255 744.715 610 740C616.259 739.001 616.259 733.999 610 733C609.066 729.873 608.127 728.934 605 728C604.601 722.879 600.004 719.966 598 726M332.662 724.047C329.949 726.324 334.573 730.486 336.019 732C340.755 736.958 345.688 741.771 351 746.111C352.723 747.519 355.809 750.579 358.253 748.914C361.112 746.967 358.502 743.429 356.866 741.805C351.518 736.498 345.781 730.97 339.999 726.144C338.28 724.709 334.958 722.121 332.662 724.047M732.662 724.047C729.949 726.324 734.573 730.486 736.019 732C740.755 736.958 745.688 741.771 751 746.111C752.723 747.519 755.809 750.579 758.253 748.914C761.115 746.965 758.498 743.432 756.866 741.804C751.507 736.458 745.811 730.994 739.999 726.144C738.28 724.709 734.958 722.121 732.662 724.047M60.0347 725.721C57.283 726.154 55.5429 728.805 53.8449 730.733C50.1854 734.887 45.5719 738.519 42.3333 742.999C40.7365 745.208 39.7052 750.027 44.0694 749.534C46.6952 749.237 48.4963 746.75 50.1698 744.981C54.1017 740.823 59.3754 736.891 62.392 732.001C63.8979 729.559 64.1449 725.074 60.0347 725.721M460.035 725.721C457.283 726.154 455.543 728.805 453.845 730.733C450.185 734.887 445.572 738.519 442.333 742.999C440.736 745.208 439.705 750.027 444.069 749.534C446.695 749.237 448.496 746.75 450.17 744.981C454.102 740.823 459.375 736.891 462.392 732.001C463.898 729.559 464.145 725.074 460.035 725.721M72.4198 732.072C65.3198 735.726 57.889 745.733 53.0594 752C51.2089 754.401 48.9667 761.262 54.8495 759.338C57.6973 758.406 59.9275 755.148 61.841 753.014C66.422 747.904 72.8347 742.852 76.3773 737.015C78.314 733.825 76.2796 730.085 72.4198 732.072M472.981 732.137C470.23 733.253 468.053 735.962 466 738.001C461.26 742.708 456.102 747.477 452.283 752.999C450.475 755.614 449.951 760.94 454.85 759.338C457.364 758.516 459.278 755.835 461.025 753.995C465.941 748.818 472.686 743.096 476.377 737.015C478.158 734.083 476.809 730.582 472.981 732.137M326.647 737.047C324.335 738.903 326.82 742.172 328.19 743.7C332.172 748.14 337.229 753.133 342 756.681C343.68 757.93 346.36 759.483 348.377 757.957C350.827 756.104 348.262 753.197 346.851 751.714C342.577 747.224 337.975 742.02 333 738.319C331.366 737.103 328.607 735.475 326.647 737.047M726.647 737.047C724.334 738.903 726.82 742.172 728.19 743.7C732.172 748.14 737.229 753.133 742 756.681C743.68 757.93 746.36 759.483 748.377 757.957C750.827 756.104 748.262 753.197 746.851 751.714C742.577 747.224 737.975 742.02 733 738.319C731.366 737.103 728.607 735.475 726.647 737.047M0 748L0 755C3.17082 755 18.9805 756.923 16.338 750.299C14.6796 746.141 3.60966 748 0 748M400 748.424C397.314 748.777 394.711 748.981 392 748.999C389.775 749.015 386.481 748.519 384.608 750.027C382.287 751.895 383.686 754.951 386.148 755.682C391.674 757.324 398.421 755.472 404 755.089C407.149 754.874 410.801 755.588 413.852 754.682C417.351 753.643 417.351 749.357 413.852 748.318C409.813 747.118 404.112 747.885 400 748.424M800 756L800 749C796.829 749 781.02 747.077 783.662 753.701C785.32 757.859 796.39 756 800 756M373.981 753.176C367.591 755.481 359.28 766.616 355.323 771.999C353.248 774.821 353.095 779.791 358.019 778.338C361.975 777.171 364.702 772.927 367.285 770C370.463 766.399 374.818 763.183 377.238 759.001C378.829 756.253 378.148 751.673 373.981 753.176M773.981 753.176C767.591 755.48 759.28 766.616 755.323 771.999C753.248 774.821 753.095 779.791 758.019 778.338C761.975 777.171 764.702 772.927 767.286 770C770.463 766.399 774.818 763.183 777.238 759.001C778.829 756.253 778.148 751.673 773.981 753.176M22.608 754.086C19.679 756.061 22.6315 760.23 24.1481 761.985C28.384 766.888 34.0309 771.689 39 775.851C40.7432 777.311 43.2937 779.299 45.6628 777.914C48.6132 776.188 46.347 772.805 44.8472 771.001C40.4018 765.654 34.3271 760.611 29 756.149C27.4212 754.826 24.7745 752.626 22.608 754.086M422.608 754.086C419.688 756.055 422.614 760.22 424.148 761.961C428.43 766.819 434.032 771.689 439 775.851C440.743 777.311 443.294 779.299 445.663 777.914C448.613 776.188 446.347 772.805 444.847 771.001C440.402 765.654 434.327 760.611 429 756.149C427.421 754.826 424.775 752.626 422.608 754.086M0 781L0 800L17 800C14.2615 795.776 8.5696 797 4 797C4 791.738 6.02304 782.999 0 781M133 787C129.526 787.577 128.577 788.526 128 792C122.207 792.667 120.234 798.202 127.019 799.656C132.607 800.853 140.442 800.53 145.941 799.022C150.872 797.669 150.094 793.647 146 792C146.863 788.209 144.413 784.152 141 788C138.977 782.613 134.274 779.018 133 787M172 800C179.77 799.973 181.455 797.116 185.742 791C187.16 788.976 190.039 786.067 189.25 783.319C187.606 777.595 181.019 785.276 179.745 787.005C178.552 788.625 177.442 790.314 176.345 792C174.66 794.588 173.221 797.17 172 800M221 800C228.129 799.916 230.57 796.783 234.329 791C235.605 789.037 238.124 785.989 237.263 783.438C235.501 778.217 229.587 785.25 228.348 787.005C227.193 788.639 226.1 790.326 225.004 792C223.295 794.611 221.944 797.036 221 800M261 787C256.093 787.819 255.997 790.584 257 795C252.824 795.137 250.728 795.638 250 800L278 800C277.423 796.526 276.474 795.577 273 795C275.172 790.316 272.988 787.888 268 789C267.783 782.347 261.666 778.452 261 787M398 781C397.006 786.355 397 791.57 397 797C391.931 796.986 385.259 794.399 383 800L417 800C414.147 795.6 407.745 797 403 797C403.001 790.719 406.335 781.649 398 781M533 787C529.526 787.577 528.577 788.526 528 792C522.207 792.667 520.234 798.202 527.019 799.656C532.607 800.853 540.442 800.53 545.941 799.022C550.872 797.669 550.094 793.647 546 792C546.863 788.209 544.413 784.152 541 788C538.977 782.613 534.274 779.018 533 787M572 800C579.77 799.973 581.455 797.116 585.742 791C587.16 788.976 590.039 786.067 589.25 783.319C587.607 777.598 581.018 785.271 579.746 787.005C578.564 788.617 577.483 790.305 576.425 792C574.799 794.605 573.299 797.222 572 800M621 800C628.506 799.973 630.358 797.124 634.329 791C635.603 789.034 638.125 785.991 637.263 783.438C635.51 778.246 629.473 785.249 628.209 787.005C627.049 788.617 626.012 790.32 624.954 792C623.3 794.626 621.94 797.05 621 800M661 787C656.093 787.819 655.997 790.584 657 795L650 795L650 800L678 800C677.423 796.526 676.474 795.577 673 795C675.172 790.316 672.988 787.888 668 789C667.783 782.347 661.666 778.452 661 787M798 781C796.479 786.146 797 791.66 797 797C791.931 796.986 785.259 794.399 783 800L800 800L800 781L798 781M45 800L51 800C51 796.281 52.7325 786.531 49.4012 784.047C47.3239 782.498 44.9615 783.978 44.3179 786.148C43.0391 790.459 44.6563 795.645 45 800M348 800L355 800C355 796.829 356.923 781.02 350.299 783.662C346.141 785.32 348 796.39 348 800M445 800L451 800C451 796.281 452.733 786.531 449.401 784.047C447.324 782.498 444.962 783.978 444.318 786.148C443.039 790.459 444.656 795.645 445 800M748 800L755 800C755 796.829 756.923 781.02 750.299 783.662C746.141 785.32 748 796.39 748 800M91.9807 789.483C85.3141 789.791 78.6892 789.877 72.0039 790.005C69.9699 790.043 66.6787 789.842 65.8904 792.299C65.0089 795.045 67.7516 796.477 70.0193 796.566C75.5626 796.784 81.3991 796.003 87 796C89.3036 795.999 92.438 796.481 94.5656 795.397C98.8055 793.236 95.5082 789.32 91.9807 789.483M327.999 789.444C320.346 790.122 312.638 789.423 305.001 790.094C302.73 790.294 298.636 790.919 298.636 793.985C298.636 797.425 303.771 796.984 306 796.999C312.422 797.044 318.624 796.322 325 796.039C327.402 795.933 331.247 796.682 333.238 794.973C337.355 791.44 330.659 789.208 327.999 789.444M491.981 789.483C485.314 789.791 478.689 789.877 472.004 790.005C469.97 790.043 466.679 789.842 465.89 792.299C465.009 795.045 467.752 796.477 470.019 796.566C475.563 796.784 481.399 796.003 487 796C489.304 795.999 492.438 796.481 494.566 795.397C498.806 793.236 495.508 789.32 491.981 789.483M727.999 789.44C720.339 790.211 712.649 789.422 705.001 790.094C702.73 790.294 698.636 790.919 698.636 793.985C698.636 797.425 703.771 796.984 706 796.999C712.422 797.044 718.624 796.322 725 796.039C727.458 795.931 731.184 796.655 733.253 794.976C737.868 791.233 730.829 789.155 727.999 789.44z"/>
</svg>
